%TF.GenerationSoftware,KiCad,Pcbnew,6.0.6-3a73a75311~116~ubuntu20.04.1*%
%TF.CreationDate,2022-07-21T13:32:12-07:00*%
%TF.ProjectId,Drone Flight Controller,44726f6e-6520-4466-9c69-67687420436f,rev?*%
%TF.SameCoordinates,Original*%
%TF.FileFunction,Legend,Top*%
%TF.FilePolarity,Positive*%
%FSLAX46Y46*%
G04 Gerber Fmt 4.6, Leading zero omitted, Abs format (unit mm)*
G04 Created by KiCad (PCBNEW 6.0.6-3a73a75311~116~ubuntu20.04.1) date 2022-07-21 13:32:12*
%MOMM*%
%LPD*%
G01*
G04 APERTURE LIST*
%ADD10C,0.150000*%
%ADD11C,0.100000*%
%ADD12C,0.120000*%
G04 APERTURE END LIST*
D10*
X67561904Y-96447380D02*
X67561904Y-95447380D01*
X67800000Y-95447380D01*
X67942857Y-95495000D01*
X68038095Y-95590238D01*
X68085714Y-95685476D01*
X68133333Y-95875952D01*
X68133333Y-96018809D01*
X68085714Y-96209285D01*
X68038095Y-96304523D01*
X67942857Y-96399761D01*
X67800000Y-96447380D01*
X67561904Y-96447380D01*
X68942857Y-96399761D02*
X68847619Y-96447380D01*
X68657142Y-96447380D01*
X68561904Y-96399761D01*
X68514285Y-96304523D01*
X68514285Y-95923571D01*
X68561904Y-95828333D01*
X68657142Y-95780714D01*
X68847619Y-95780714D01*
X68942857Y-95828333D01*
X68990476Y-95923571D01*
X68990476Y-96018809D01*
X68514285Y-96114047D01*
X69371428Y-96399761D02*
X69466666Y-96447380D01*
X69657142Y-96447380D01*
X69752380Y-96399761D01*
X69800000Y-96304523D01*
X69800000Y-96256904D01*
X69752380Y-96161666D01*
X69657142Y-96114047D01*
X69514285Y-96114047D01*
X69419047Y-96066428D01*
X69371428Y-95971190D01*
X69371428Y-95923571D01*
X69419047Y-95828333D01*
X69514285Y-95780714D01*
X69657142Y-95780714D01*
X69752380Y-95828333D01*
X70228571Y-96447380D02*
X70228571Y-95780714D01*
X70228571Y-95447380D02*
X70180952Y-95495000D01*
X70228571Y-95542619D01*
X70276190Y-95495000D01*
X70228571Y-95447380D01*
X70228571Y-95542619D01*
X71133333Y-95780714D02*
X71133333Y-96590238D01*
X71085714Y-96685476D01*
X71038095Y-96733095D01*
X70942857Y-96780714D01*
X70800000Y-96780714D01*
X70704761Y-96733095D01*
X71133333Y-96399761D02*
X71038095Y-96447380D01*
X70847619Y-96447380D01*
X70752380Y-96399761D01*
X70704761Y-96352142D01*
X70657142Y-96256904D01*
X70657142Y-95971190D01*
X70704761Y-95875952D01*
X70752380Y-95828333D01*
X70847619Y-95780714D01*
X71038095Y-95780714D01*
X71133333Y-95828333D01*
X71609523Y-95780714D02*
X71609523Y-96447380D01*
X71609523Y-95875952D02*
X71657142Y-95828333D01*
X71752380Y-95780714D01*
X71895238Y-95780714D01*
X71990476Y-95828333D01*
X72038095Y-95923571D01*
X72038095Y-96447380D01*
X72895238Y-96399761D02*
X72800000Y-96447380D01*
X72609523Y-96447380D01*
X72514285Y-96399761D01*
X72466666Y-96304523D01*
X72466666Y-95923571D01*
X72514285Y-95828333D01*
X72609523Y-95780714D01*
X72800000Y-95780714D01*
X72895238Y-95828333D01*
X72942857Y-95923571D01*
X72942857Y-96018809D01*
X72466666Y-96114047D01*
X73800000Y-96447380D02*
X73800000Y-95447380D01*
X73800000Y-96399761D02*
X73704761Y-96447380D01*
X73514285Y-96447380D01*
X73419047Y-96399761D01*
X73371428Y-96352142D01*
X73323809Y-96256904D01*
X73323809Y-95971190D01*
X73371428Y-95875952D01*
X73419047Y-95828333D01*
X73514285Y-95780714D01*
X73704761Y-95780714D01*
X73800000Y-95828333D01*
X75038095Y-96447380D02*
X75038095Y-95447380D01*
X75038095Y-95828333D02*
X75133333Y-95780714D01*
X75323809Y-95780714D01*
X75419047Y-95828333D01*
X75466666Y-95875952D01*
X75514285Y-95971190D01*
X75514285Y-96256904D01*
X75466666Y-96352142D01*
X75419047Y-96399761D01*
X75323809Y-96447380D01*
X75133333Y-96447380D01*
X75038095Y-96399761D01*
X75847619Y-95780714D02*
X76085714Y-96447380D01*
X76323809Y-95780714D02*
X76085714Y-96447380D01*
X75990476Y-96685476D01*
X75942857Y-96733095D01*
X75847619Y-96780714D01*
X77419047Y-96161666D02*
X77895238Y-96161666D01*
X77323809Y-96447380D02*
X77657142Y-95447380D01*
X77990476Y-96447380D01*
X78323809Y-95780714D02*
X78323809Y-96447380D01*
X78323809Y-95875952D02*
X78371428Y-95828333D01*
X78466666Y-95780714D01*
X78609523Y-95780714D01*
X78704761Y-95828333D01*
X78752380Y-95923571D01*
X78752380Y-96447380D01*
X79657142Y-96447380D02*
X79657142Y-95447380D01*
X79657142Y-96399761D02*
X79561904Y-96447380D01*
X79371428Y-96447380D01*
X79276190Y-96399761D01*
X79228571Y-96352142D01*
X79180952Y-96256904D01*
X79180952Y-95971190D01*
X79228571Y-95875952D01*
X79276190Y-95828333D01*
X79371428Y-95780714D01*
X79561904Y-95780714D01*
X79657142Y-95828333D01*
X80133333Y-96447380D02*
X80133333Y-95780714D01*
X80133333Y-95971190D02*
X80180952Y-95875952D01*
X80228571Y-95828333D01*
X80323809Y-95780714D01*
X80419047Y-95780714D01*
X81133333Y-96399761D02*
X81038095Y-96447380D01*
X80847619Y-96447380D01*
X80752380Y-96399761D01*
X80704761Y-96304523D01*
X80704761Y-95923571D01*
X80752380Y-95828333D01*
X80847619Y-95780714D01*
X81038095Y-95780714D01*
X81133333Y-95828333D01*
X81180952Y-95923571D01*
X81180952Y-96018809D01*
X80704761Y-96114047D01*
X81561904Y-96399761D02*
X81657142Y-96447380D01*
X81847619Y-96447380D01*
X81942857Y-96399761D01*
X81990476Y-96304523D01*
X81990476Y-96256904D01*
X81942857Y-96161666D01*
X81847619Y-96114047D01*
X81704761Y-96114047D01*
X81609523Y-96066428D01*
X81561904Y-95971190D01*
X81561904Y-95923571D01*
X81609523Y-95828333D01*
X81704761Y-95780714D01*
X81847619Y-95780714D01*
X81942857Y-95828333D01*
X83752380Y-96352142D02*
X83704761Y-96399761D01*
X83561904Y-96447380D01*
X83466666Y-96447380D01*
X83323809Y-96399761D01*
X83228571Y-96304523D01*
X83180952Y-96209285D01*
X83133333Y-96018809D01*
X83133333Y-95875952D01*
X83180952Y-95685476D01*
X83228571Y-95590238D01*
X83323809Y-95495000D01*
X83466666Y-95447380D01*
X83561904Y-95447380D01*
X83704761Y-95495000D01*
X83752380Y-95542619D01*
X84180952Y-96447380D02*
X84180952Y-95780714D01*
X84180952Y-95971190D02*
X84228571Y-95875952D01*
X84276190Y-95828333D01*
X84371428Y-95780714D01*
X84466666Y-95780714D01*
X85228571Y-95780714D02*
X85228571Y-96447380D01*
X84800000Y-95780714D02*
X84800000Y-96304523D01*
X84847619Y-96399761D01*
X84942857Y-96447380D01*
X85085714Y-96447380D01*
X85180952Y-96399761D01*
X85228571Y-96352142D01*
X85609523Y-95780714D02*
X86133333Y-95780714D01*
X85609523Y-96447380D01*
X86133333Y-96447380D01*
X72871428Y-97533571D02*
X73014285Y-97581190D01*
X73061904Y-97628809D01*
X73109523Y-97724047D01*
X73109523Y-97866904D01*
X73061904Y-97962142D01*
X73014285Y-98009761D01*
X72919047Y-98057380D01*
X72538095Y-98057380D01*
X72538095Y-97057380D01*
X72871428Y-97057380D01*
X72966666Y-97105000D01*
X73014285Y-97152619D01*
X73061904Y-97247857D01*
X73061904Y-97343095D01*
X73014285Y-97438333D01*
X72966666Y-97485952D01*
X72871428Y-97533571D01*
X72538095Y-97533571D01*
X73538095Y-98057380D02*
X73538095Y-97390714D01*
X73538095Y-97581190D02*
X73585714Y-97485952D01*
X73633333Y-97438333D01*
X73728571Y-97390714D01*
X73823809Y-97390714D01*
X74300000Y-98057380D02*
X74204761Y-98009761D01*
X74157142Y-97962142D01*
X74109523Y-97866904D01*
X74109523Y-97581190D01*
X74157142Y-97485952D01*
X74204761Y-97438333D01*
X74300000Y-97390714D01*
X74442857Y-97390714D01*
X74538095Y-97438333D01*
X74585714Y-97485952D01*
X74633333Y-97581190D01*
X74633333Y-97866904D01*
X74585714Y-97962142D01*
X74538095Y-98009761D01*
X74442857Y-98057380D01*
X74300000Y-98057380D01*
X75490476Y-97390714D02*
X75490476Y-98200238D01*
X75442857Y-98295476D01*
X75395238Y-98343095D01*
X75300000Y-98390714D01*
X75157142Y-98390714D01*
X75061904Y-98343095D01*
X75490476Y-98009761D02*
X75395238Y-98057380D01*
X75204761Y-98057380D01*
X75109523Y-98009761D01*
X75061904Y-97962142D01*
X75014285Y-97866904D01*
X75014285Y-97581190D01*
X75061904Y-97485952D01*
X75109523Y-97438333D01*
X75204761Y-97390714D01*
X75395238Y-97390714D01*
X75490476Y-97438333D01*
X76395238Y-97390714D02*
X76395238Y-98057380D01*
X75966666Y-97390714D02*
X75966666Y-97914523D01*
X76014285Y-98009761D01*
X76109523Y-98057380D01*
X76252380Y-98057380D01*
X76347619Y-98009761D01*
X76395238Y-97962142D01*
X76871428Y-98057380D02*
X76871428Y-97390714D01*
X76871428Y-97581190D02*
X76919047Y-97485952D01*
X76966666Y-97438333D01*
X77061904Y-97390714D01*
X77157142Y-97390714D01*
X77347619Y-97390714D02*
X77728571Y-97390714D01*
X77490476Y-97057380D02*
X77490476Y-97914523D01*
X77538095Y-98009761D01*
X77633333Y-98057380D01*
X77728571Y-98057380D01*
X78823809Y-98057380D02*
X78823809Y-97057380D01*
X79300000Y-97390714D02*
X79300000Y-98057380D01*
X79300000Y-97485952D02*
X79347619Y-97438333D01*
X79442857Y-97390714D01*
X79585714Y-97390714D01*
X79680952Y-97438333D01*
X79728571Y-97533571D01*
X79728571Y-98057380D01*
X80633333Y-98009761D02*
X80538095Y-98057380D01*
X80347619Y-98057380D01*
X80252380Y-98009761D01*
X80204761Y-97962142D01*
X80157142Y-97866904D01*
X80157142Y-97581190D01*
X80204761Y-97485952D01*
X80252380Y-97438333D01*
X80347619Y-97390714D01*
X80538095Y-97390714D01*
X80633333Y-97438333D01*
X81061904Y-97962142D02*
X81109523Y-98009761D01*
X81061904Y-98057380D01*
X81014285Y-98009761D01*
X81061904Y-97962142D01*
X81061904Y-98057380D01*
%TO.C,*%
%TO.C,J5*%
X78266666Y-103452380D02*
X78266666Y-104166666D01*
X78219047Y-104309523D01*
X78123809Y-104404761D01*
X77980952Y-104452380D01*
X77885714Y-104452380D01*
X79219047Y-103452380D02*
X78742857Y-103452380D01*
X78695238Y-103928571D01*
X78742857Y-103880952D01*
X78838095Y-103833333D01*
X79076190Y-103833333D01*
X79171428Y-103880952D01*
X79219047Y-103928571D01*
X79266666Y-104023809D01*
X79266666Y-104261904D01*
X79219047Y-104357142D01*
X79171428Y-104404761D01*
X79076190Y-104452380D01*
X78838095Y-104452380D01*
X78742857Y-104404761D01*
X78695238Y-104357142D01*
%TO.C,C14*%
X64117857Y-85907857D02*
X64082142Y-85943571D01*
X63975000Y-85979285D01*
X63903571Y-85979285D01*
X63796428Y-85943571D01*
X63725000Y-85872142D01*
X63689285Y-85800714D01*
X63653571Y-85657857D01*
X63653571Y-85550714D01*
X63689285Y-85407857D01*
X63725000Y-85336428D01*
X63796428Y-85265000D01*
X63903571Y-85229285D01*
X63975000Y-85229285D01*
X64082142Y-85265000D01*
X64117857Y-85300714D01*
X64832142Y-85979285D02*
X64403571Y-85979285D01*
X64617857Y-85979285D02*
X64617857Y-85229285D01*
X64546428Y-85336428D01*
X64475000Y-85407857D01*
X64403571Y-85443571D01*
X65475000Y-85479285D02*
X65475000Y-85979285D01*
X65296428Y-85193571D02*
X65117857Y-85729285D01*
X65582142Y-85729285D01*
%TO.C,C1*%
X74033333Y-82757142D02*
X73985714Y-82804761D01*
X73842857Y-82852380D01*
X73747619Y-82852380D01*
X73604761Y-82804761D01*
X73509523Y-82709523D01*
X73461904Y-82614285D01*
X73414285Y-82423809D01*
X73414285Y-82280952D01*
X73461904Y-82090476D01*
X73509523Y-81995238D01*
X73604761Y-81900000D01*
X73747619Y-81852380D01*
X73842857Y-81852380D01*
X73985714Y-81900000D01*
X74033333Y-81947619D01*
X74985714Y-82852380D02*
X74414285Y-82852380D01*
X74700000Y-82852380D02*
X74700000Y-81852380D01*
X74604761Y-81995238D01*
X74509523Y-82090476D01*
X74414285Y-82138095D01*
%TO.C,J11*%
X55990476Y-73852380D02*
X55990476Y-74566666D01*
X55942857Y-74709523D01*
X55847619Y-74804761D01*
X55704761Y-74852380D01*
X55609523Y-74852380D01*
X56990476Y-74852380D02*
X56419047Y-74852380D01*
X56704761Y-74852380D02*
X56704761Y-73852380D01*
X56609523Y-73995238D01*
X56514285Y-74090476D01*
X56419047Y-74138095D01*
X57942857Y-74852380D02*
X57371428Y-74852380D01*
X57657142Y-74852380D02*
X57657142Y-73852380D01*
X57561904Y-73995238D01*
X57466666Y-74090476D01*
X57371428Y-74138095D01*
%TO.C,C2*%
X74157142Y-79966666D02*
X74204761Y-80014285D01*
X74252380Y-80157142D01*
X74252380Y-80252380D01*
X74204761Y-80395238D01*
X74109523Y-80490476D01*
X74014285Y-80538095D01*
X73823809Y-80585714D01*
X73680952Y-80585714D01*
X73490476Y-80538095D01*
X73395238Y-80490476D01*
X73300000Y-80395238D01*
X73252380Y-80252380D01*
X73252380Y-80157142D01*
X73300000Y-80014285D01*
X73347619Y-79966666D01*
X73347619Y-79585714D02*
X73300000Y-79538095D01*
X73252380Y-79442857D01*
X73252380Y-79204761D01*
X73300000Y-79109523D01*
X73347619Y-79061904D01*
X73442857Y-79014285D01*
X73538095Y-79014285D01*
X73680952Y-79061904D01*
X74252380Y-79633333D01*
X74252380Y-79014285D01*
%TO.C,R4*%
X78033333Y-91052380D02*
X77700000Y-90576190D01*
X77461904Y-91052380D02*
X77461904Y-90052380D01*
X77842857Y-90052380D01*
X77938095Y-90100000D01*
X77985714Y-90147619D01*
X78033333Y-90242857D01*
X78033333Y-90385714D01*
X77985714Y-90480952D01*
X77938095Y-90528571D01*
X77842857Y-90576190D01*
X77461904Y-90576190D01*
X78890476Y-90385714D02*
X78890476Y-91052380D01*
X78652380Y-90004761D02*
X78414285Y-90719047D01*
X79033333Y-90719047D01*
%TO.C,U3*%
X61238095Y-83452380D02*
X61238095Y-84261904D01*
X61285714Y-84357142D01*
X61333333Y-84404761D01*
X61428571Y-84452380D01*
X61619047Y-84452380D01*
X61714285Y-84404761D01*
X61761904Y-84357142D01*
X61809523Y-84261904D01*
X61809523Y-83452380D01*
X62190476Y-83452380D02*
X62809523Y-83452380D01*
X62476190Y-83833333D01*
X62619047Y-83833333D01*
X62714285Y-83880952D01*
X62761904Y-83928571D01*
X62809523Y-84023809D01*
X62809523Y-84261904D01*
X62761904Y-84357142D01*
X62714285Y-84404761D01*
X62619047Y-84452380D01*
X62333333Y-84452380D01*
X62238095Y-84404761D01*
X62190476Y-84357142D01*
%TO.C,C3*%
X49833333Y-80157142D02*
X49785714Y-80204761D01*
X49642857Y-80252380D01*
X49547619Y-80252380D01*
X49404761Y-80204761D01*
X49309523Y-80109523D01*
X49261904Y-80014285D01*
X49214285Y-79823809D01*
X49214285Y-79680952D01*
X49261904Y-79490476D01*
X49309523Y-79395238D01*
X49404761Y-79300000D01*
X49547619Y-79252380D01*
X49642857Y-79252380D01*
X49785714Y-79300000D01*
X49833333Y-79347619D01*
X50166666Y-79252380D02*
X50785714Y-79252380D01*
X50452380Y-79633333D01*
X50595238Y-79633333D01*
X50690476Y-79680952D01*
X50738095Y-79728571D01*
X50785714Y-79823809D01*
X50785714Y-80061904D01*
X50738095Y-80157142D01*
X50690476Y-80204761D01*
X50595238Y-80252380D01*
X50309523Y-80252380D01*
X50214285Y-80204761D01*
X50166666Y-80157142D01*
%TO.C,U2*%
X59438095Y-104052380D02*
X59438095Y-104861904D01*
X59485714Y-104957142D01*
X59533333Y-105004761D01*
X59628571Y-105052380D01*
X59819047Y-105052380D01*
X59914285Y-105004761D01*
X59961904Y-104957142D01*
X60009523Y-104861904D01*
X60009523Y-104052380D01*
X60438095Y-104147619D02*
X60485714Y-104100000D01*
X60580952Y-104052380D01*
X60819047Y-104052380D01*
X60914285Y-104100000D01*
X60961904Y-104147619D01*
X61009523Y-104242857D01*
X61009523Y-104338095D01*
X60961904Y-104480952D01*
X60390476Y-105052380D01*
X61009523Y-105052380D01*
%TO.C,Y1*%
X42976190Y-86276190D02*
X43452380Y-86276190D01*
X42452380Y-86609523D02*
X42976190Y-86276190D01*
X42452380Y-85942857D01*
X43452380Y-85085714D02*
X43452380Y-85657142D01*
X43452380Y-85371428D02*
X42452380Y-85371428D01*
X42595238Y-85466666D01*
X42690476Y-85561904D01*
X42738095Y-85657142D01*
%TO.C,J7*%
X40866666Y-97652380D02*
X40866666Y-98366666D01*
X40819047Y-98509523D01*
X40723809Y-98604761D01*
X40580952Y-98652380D01*
X40485714Y-98652380D01*
X41247619Y-97652380D02*
X41914285Y-97652380D01*
X41485714Y-98652380D01*
%TO.C,D2*%
X78652380Y-76338095D02*
X77652380Y-76338095D01*
X77652380Y-76100000D01*
X77700000Y-75957142D01*
X77795238Y-75861904D01*
X77890476Y-75814285D01*
X78080952Y-75766666D01*
X78223809Y-75766666D01*
X78414285Y-75814285D01*
X78509523Y-75861904D01*
X78604761Y-75957142D01*
X78652380Y-76100000D01*
X78652380Y-76338095D01*
X77747619Y-75385714D02*
X77700000Y-75338095D01*
X77652380Y-75242857D01*
X77652380Y-75004761D01*
X77700000Y-74909523D01*
X77747619Y-74861904D01*
X77842857Y-74814285D01*
X77938095Y-74814285D01*
X78080952Y-74861904D01*
X78652380Y-75433333D01*
X78652380Y-74814285D01*
%TO.C,R1*%
X75633333Y-80052380D02*
X75300000Y-79576190D01*
X75061904Y-80052380D02*
X75061904Y-79052380D01*
X75442857Y-79052380D01*
X75538095Y-79100000D01*
X75585714Y-79147619D01*
X75633333Y-79242857D01*
X75633333Y-79385714D01*
X75585714Y-79480952D01*
X75538095Y-79528571D01*
X75442857Y-79576190D01*
X75061904Y-79576190D01*
X76585714Y-80052380D02*
X76014285Y-80052380D01*
X76300000Y-80052380D02*
X76300000Y-79052380D01*
X76204761Y-79195238D01*
X76109523Y-79290476D01*
X76014285Y-79338095D01*
%TO.C,J13*%
X65592857Y-103452380D02*
X65592857Y-104166666D01*
X65557142Y-104309523D01*
X65485714Y-104404761D01*
X65378571Y-104452380D01*
X65307142Y-104452380D01*
X66342857Y-104452380D02*
X65914285Y-104452380D01*
X66128571Y-104452380D02*
X66128571Y-103452380D01*
X66057142Y-103595238D01*
X65985714Y-103690476D01*
X65914285Y-103738095D01*
X66592857Y-103452380D02*
X67057142Y-103452380D01*
X66807142Y-103833333D01*
X66914285Y-103833333D01*
X66985714Y-103880952D01*
X67021428Y-103928571D01*
X67057142Y-104023809D01*
X67057142Y-104261904D01*
X67021428Y-104357142D01*
X66985714Y-104404761D01*
X66914285Y-104452380D01*
X66700000Y-104452380D01*
X66628571Y-104404761D01*
X66592857Y-104357142D01*
%TO.C,FB1*%
X46166666Y-96928571D02*
X45833333Y-96928571D01*
X45833333Y-97452380D02*
X45833333Y-96452380D01*
X46309523Y-96452380D01*
X47023809Y-96928571D02*
X47166666Y-96976190D01*
X47214285Y-97023809D01*
X47261904Y-97119047D01*
X47261904Y-97261904D01*
X47214285Y-97357142D01*
X47166666Y-97404761D01*
X47071428Y-97452380D01*
X46690476Y-97452380D01*
X46690476Y-96452380D01*
X47023809Y-96452380D01*
X47119047Y-96500000D01*
X47166666Y-96547619D01*
X47214285Y-96642857D01*
X47214285Y-96738095D01*
X47166666Y-96833333D01*
X47119047Y-96880952D01*
X47023809Y-96928571D01*
X46690476Y-96928571D01*
X48214285Y-97452380D02*
X47642857Y-97452380D01*
X47928571Y-97452380D02*
X47928571Y-96452380D01*
X47833333Y-96595238D01*
X47738095Y-96690476D01*
X47642857Y-96738095D01*
%TO.C,J8*%
X70066666Y-103452380D02*
X70066666Y-104166666D01*
X70019047Y-104309523D01*
X69923809Y-104404761D01*
X69780952Y-104452380D01*
X69685714Y-104452380D01*
X70685714Y-103880952D02*
X70590476Y-103833333D01*
X70542857Y-103785714D01*
X70495238Y-103690476D01*
X70495238Y-103642857D01*
X70542857Y-103547619D01*
X70590476Y-103500000D01*
X70685714Y-103452380D01*
X70876190Y-103452380D01*
X70971428Y-103500000D01*
X71019047Y-103547619D01*
X71066666Y-103642857D01*
X71066666Y-103690476D01*
X71019047Y-103785714D01*
X70971428Y-103833333D01*
X70876190Y-103880952D01*
X70685714Y-103880952D01*
X70590476Y-103928571D01*
X70542857Y-103976190D01*
X70495238Y-104071428D01*
X70495238Y-104261904D01*
X70542857Y-104357142D01*
X70590476Y-104404761D01*
X70685714Y-104452380D01*
X70876190Y-104452380D01*
X70971428Y-104404761D01*
X71019047Y-104357142D01*
X71066666Y-104261904D01*
X71066666Y-104071428D01*
X71019047Y-103976190D01*
X70971428Y-103928571D01*
X70876190Y-103880952D01*
%TO.C,J12*%
X73992857Y-103452380D02*
X73992857Y-104166666D01*
X73957142Y-104309523D01*
X73885714Y-104404761D01*
X73778571Y-104452380D01*
X73707142Y-104452380D01*
X74742857Y-104452380D02*
X74314285Y-104452380D01*
X74528571Y-104452380D02*
X74528571Y-103452380D01*
X74457142Y-103595238D01*
X74385714Y-103690476D01*
X74314285Y-103738095D01*
X75028571Y-103547619D02*
X75064285Y-103500000D01*
X75135714Y-103452380D01*
X75314285Y-103452380D01*
X75385714Y-103500000D01*
X75421428Y-103547619D01*
X75457142Y-103642857D01*
X75457142Y-103738095D01*
X75421428Y-103880952D01*
X74992857Y-104452380D01*
X75457142Y-104452380D01*
%TO.C,D1*%
X66652380Y-84138095D02*
X65652380Y-84138095D01*
X65652380Y-83900000D01*
X65700000Y-83757142D01*
X65795238Y-83661904D01*
X65890476Y-83614285D01*
X66080952Y-83566666D01*
X66223809Y-83566666D01*
X66414285Y-83614285D01*
X66509523Y-83661904D01*
X66604761Y-83757142D01*
X66652380Y-83900000D01*
X66652380Y-84138095D01*
X66652380Y-82614285D02*
X66652380Y-83185714D01*
X66652380Y-82900000D02*
X65652380Y-82900000D01*
X65795238Y-82995238D01*
X65890476Y-83090476D01*
X65938095Y-83185714D01*
%TO.C,R3*%
X75743333Y-88252380D02*
X75410000Y-87776190D01*
X75171904Y-88252380D02*
X75171904Y-87252380D01*
X75552857Y-87252380D01*
X75648095Y-87300000D01*
X75695714Y-87347619D01*
X75743333Y-87442857D01*
X75743333Y-87585714D01*
X75695714Y-87680952D01*
X75648095Y-87728571D01*
X75552857Y-87776190D01*
X75171904Y-87776190D01*
X76076666Y-87252380D02*
X76695714Y-87252380D01*
X76362380Y-87633333D01*
X76505238Y-87633333D01*
X76600476Y-87680952D01*
X76648095Y-87728571D01*
X76695714Y-87823809D01*
X76695714Y-88061904D01*
X76648095Y-88157142D01*
X76600476Y-88204761D01*
X76505238Y-88252380D01*
X76219523Y-88252380D01*
X76124285Y-88204761D01*
X76076666Y-88157142D01*
%TO.C,R2*%
X45233333Y-75852380D02*
X44900000Y-75376190D01*
X44661904Y-75852380D02*
X44661904Y-74852380D01*
X45042857Y-74852380D01*
X45138095Y-74900000D01*
X45185714Y-74947619D01*
X45233333Y-75042857D01*
X45233333Y-75185714D01*
X45185714Y-75280952D01*
X45138095Y-75328571D01*
X45042857Y-75376190D01*
X44661904Y-75376190D01*
X45614285Y-74947619D02*
X45661904Y-74900000D01*
X45757142Y-74852380D01*
X45995238Y-74852380D01*
X46090476Y-74900000D01*
X46138095Y-74947619D01*
X46185714Y-75042857D01*
X46185714Y-75138095D01*
X46138095Y-75280952D01*
X45566666Y-75852380D01*
X46185714Y-75852380D01*
%TO.C,C6*%
X55633333Y-97667857D02*
X55585714Y-97703571D01*
X55442857Y-97739285D01*
X55347619Y-97739285D01*
X55204761Y-97703571D01*
X55109523Y-97632142D01*
X55061904Y-97560714D01*
X55014285Y-97417857D01*
X55014285Y-97310714D01*
X55061904Y-97167857D01*
X55109523Y-97096428D01*
X55204761Y-97025000D01*
X55347619Y-96989285D01*
X55442857Y-96989285D01*
X55585714Y-97025000D01*
X55633333Y-97060714D01*
X56490476Y-96989285D02*
X56300000Y-96989285D01*
X56204761Y-97025000D01*
X56157142Y-97060714D01*
X56061904Y-97167857D01*
X56014285Y-97310714D01*
X56014285Y-97596428D01*
X56061904Y-97667857D01*
X56109523Y-97703571D01*
X56204761Y-97739285D01*
X56395238Y-97739285D01*
X56490476Y-97703571D01*
X56538095Y-97667857D01*
X56585714Y-97596428D01*
X56585714Y-97417857D01*
X56538095Y-97346428D01*
X56490476Y-97310714D01*
X56395238Y-97275000D01*
X56204761Y-97275000D01*
X56109523Y-97310714D01*
X56061904Y-97346428D01*
X56014285Y-97417857D01*
%TO.C,C15*%
X48917857Y-84667857D02*
X48882142Y-84703571D01*
X48775000Y-84739285D01*
X48703571Y-84739285D01*
X48596428Y-84703571D01*
X48525000Y-84632142D01*
X48489285Y-84560714D01*
X48453571Y-84417857D01*
X48453571Y-84310714D01*
X48489285Y-84167857D01*
X48525000Y-84096428D01*
X48596428Y-84025000D01*
X48703571Y-83989285D01*
X48775000Y-83989285D01*
X48882142Y-84025000D01*
X48917857Y-84060714D01*
X49632142Y-84739285D02*
X49203571Y-84739285D01*
X49417857Y-84739285D02*
X49417857Y-83989285D01*
X49346428Y-84096428D01*
X49275000Y-84167857D01*
X49203571Y-84203571D01*
X50310714Y-83989285D02*
X49953571Y-83989285D01*
X49917857Y-84346428D01*
X49953571Y-84310714D01*
X50025000Y-84275000D01*
X50203571Y-84275000D01*
X50275000Y-84310714D01*
X50310714Y-84346428D01*
X50346428Y-84417857D01*
X50346428Y-84596428D01*
X50310714Y-84667857D01*
X50275000Y-84703571D01*
X50203571Y-84739285D01*
X50025000Y-84739285D01*
X49953571Y-84703571D01*
X49917857Y-84667857D01*
%TO.C,J14*%
X67792857Y-103452380D02*
X67792857Y-104166666D01*
X67757142Y-104309523D01*
X67685714Y-104404761D01*
X67578571Y-104452380D01*
X67507142Y-104452380D01*
X68542857Y-104452380D02*
X68114285Y-104452380D01*
X68328571Y-104452380D02*
X68328571Y-103452380D01*
X68257142Y-103595238D01*
X68185714Y-103690476D01*
X68114285Y-103738095D01*
X69185714Y-103785714D02*
X69185714Y-104452380D01*
X69007142Y-103404761D02*
X68828571Y-104119047D01*
X69292857Y-104119047D01*
%TO.C,C17*%
X53317857Y-102467857D02*
X53282142Y-102503571D01*
X53175000Y-102539285D01*
X53103571Y-102539285D01*
X52996428Y-102503571D01*
X52925000Y-102432142D01*
X52889285Y-102360714D01*
X52853571Y-102217857D01*
X52853571Y-102110714D01*
X52889285Y-101967857D01*
X52925000Y-101896428D01*
X52996428Y-101825000D01*
X53103571Y-101789285D01*
X53175000Y-101789285D01*
X53282142Y-101825000D01*
X53317857Y-101860714D01*
X54032142Y-102539285D02*
X53603571Y-102539285D01*
X53817857Y-102539285D02*
X53817857Y-101789285D01*
X53746428Y-101896428D01*
X53675000Y-101967857D01*
X53603571Y-102003571D01*
X54282142Y-101789285D02*
X54782142Y-101789285D01*
X54460714Y-102539285D01*
%TO.C,J6*%
X40866666Y-95452380D02*
X40866666Y-96166666D01*
X40819047Y-96309523D01*
X40723809Y-96404761D01*
X40580952Y-96452380D01*
X40485714Y-96452380D01*
X41771428Y-95452380D02*
X41580952Y-95452380D01*
X41485714Y-95500000D01*
X41438095Y-95547619D01*
X41342857Y-95690476D01*
X41295238Y-95880952D01*
X41295238Y-96261904D01*
X41342857Y-96357142D01*
X41390476Y-96404761D01*
X41485714Y-96452380D01*
X41676190Y-96452380D01*
X41771428Y-96404761D01*
X41819047Y-96357142D01*
X41866666Y-96261904D01*
X41866666Y-96023809D01*
X41819047Y-95928571D01*
X41771428Y-95880952D01*
X41676190Y-95833333D01*
X41485714Y-95833333D01*
X41390476Y-95880952D01*
X41342857Y-95928571D01*
X41295238Y-96023809D01*
%TO.C,C13*%
X63957142Y-96357142D02*
X63909523Y-96404761D01*
X63766666Y-96452380D01*
X63671428Y-96452380D01*
X63528571Y-96404761D01*
X63433333Y-96309523D01*
X63385714Y-96214285D01*
X63338095Y-96023809D01*
X63338095Y-95880952D01*
X63385714Y-95690476D01*
X63433333Y-95595238D01*
X63528571Y-95500000D01*
X63671428Y-95452380D01*
X63766666Y-95452380D01*
X63909523Y-95500000D01*
X63957142Y-95547619D01*
X64909523Y-96452380D02*
X64338095Y-96452380D01*
X64623809Y-96452380D02*
X64623809Y-95452380D01*
X64528571Y-95595238D01*
X64433333Y-95690476D01*
X64338095Y-95738095D01*
X65242857Y-95452380D02*
X65861904Y-95452380D01*
X65528571Y-95833333D01*
X65671428Y-95833333D01*
X65766666Y-95880952D01*
X65814285Y-95928571D01*
X65861904Y-96023809D01*
X65861904Y-96261904D01*
X65814285Y-96357142D01*
X65766666Y-96404761D01*
X65671428Y-96452380D01*
X65385714Y-96452380D01*
X65290476Y-96404761D01*
X65242857Y-96357142D01*
%TO.C,J2*%
X40666666Y-91252380D02*
X40666666Y-91966666D01*
X40619047Y-92109523D01*
X40523809Y-92204761D01*
X40380952Y-92252380D01*
X40285714Y-92252380D01*
X41095238Y-91347619D02*
X41142857Y-91300000D01*
X41238095Y-91252380D01*
X41476190Y-91252380D01*
X41571428Y-91300000D01*
X41619047Y-91347619D01*
X41666666Y-91442857D01*
X41666666Y-91538095D01*
X41619047Y-91680952D01*
X41047619Y-92252380D01*
X41666666Y-92252380D01*
%TO.C,J10*%
X71792857Y-103452380D02*
X71792857Y-104166666D01*
X71757142Y-104309523D01*
X71685714Y-104404761D01*
X71578571Y-104452380D01*
X71507142Y-104452380D01*
X72542857Y-104452380D02*
X72114285Y-104452380D01*
X72328571Y-104452380D02*
X72328571Y-103452380D01*
X72257142Y-103595238D01*
X72185714Y-103690476D01*
X72114285Y-103738095D01*
X73007142Y-103452380D02*
X73078571Y-103452380D01*
X73150000Y-103500000D01*
X73185714Y-103547619D01*
X73221428Y-103642857D01*
X73257142Y-103833333D01*
X73257142Y-104071428D01*
X73221428Y-104261904D01*
X73185714Y-104357142D01*
X73150000Y-104404761D01*
X73078571Y-104452380D01*
X73007142Y-104452380D01*
X72935714Y-104404761D01*
X72900000Y-104357142D01*
X72864285Y-104261904D01*
X72828571Y-104071428D01*
X72828571Y-103833333D01*
X72864285Y-103642857D01*
X72900000Y-103547619D01*
X72935714Y-103500000D01*
X73007142Y-103452380D01*
%TO.C,J3*%
X40866666Y-93452380D02*
X40866666Y-94166666D01*
X40819047Y-94309523D01*
X40723809Y-94404761D01*
X40580952Y-94452380D01*
X40485714Y-94452380D01*
X41247619Y-93452380D02*
X41866666Y-93452380D01*
X41533333Y-93833333D01*
X41676190Y-93833333D01*
X41771428Y-93880952D01*
X41819047Y-93928571D01*
X41866666Y-94023809D01*
X41866666Y-94261904D01*
X41819047Y-94357142D01*
X41771428Y-94404761D01*
X41676190Y-94452380D01*
X41390476Y-94452380D01*
X41295238Y-94404761D01*
X41247619Y-94357142D01*
%TO.C,C7*%
X55633333Y-99067857D02*
X55585714Y-99103571D01*
X55442857Y-99139285D01*
X55347619Y-99139285D01*
X55204761Y-99103571D01*
X55109523Y-99032142D01*
X55061904Y-98960714D01*
X55014285Y-98817857D01*
X55014285Y-98710714D01*
X55061904Y-98567857D01*
X55109523Y-98496428D01*
X55204761Y-98425000D01*
X55347619Y-98389285D01*
X55442857Y-98389285D01*
X55585714Y-98425000D01*
X55633333Y-98460714D01*
X55966666Y-98389285D02*
X56633333Y-98389285D01*
X56204761Y-99139285D01*
%TO.C,C4*%
X55633333Y-100267857D02*
X55585714Y-100303571D01*
X55442857Y-100339285D01*
X55347619Y-100339285D01*
X55204761Y-100303571D01*
X55109523Y-100232142D01*
X55061904Y-100160714D01*
X55014285Y-100017857D01*
X55014285Y-99910714D01*
X55061904Y-99767857D01*
X55109523Y-99696428D01*
X55204761Y-99625000D01*
X55347619Y-99589285D01*
X55442857Y-99589285D01*
X55585714Y-99625000D01*
X55633333Y-99660714D01*
X56490476Y-99839285D02*
X56490476Y-100339285D01*
X56252380Y-99553571D02*
X56014285Y-100089285D01*
X56633333Y-100089285D01*
%TO.C,J9*%
X58866666Y-73852380D02*
X58866666Y-74566666D01*
X58819047Y-74709523D01*
X58723809Y-74804761D01*
X58580952Y-74852380D01*
X58485714Y-74852380D01*
X59390476Y-74852380D02*
X59580952Y-74852380D01*
X59676190Y-74804761D01*
X59723809Y-74757142D01*
X59819047Y-74614285D01*
X59866666Y-74423809D01*
X59866666Y-74042857D01*
X59819047Y-73947619D01*
X59771428Y-73900000D01*
X59676190Y-73852380D01*
X59485714Y-73852380D01*
X59390476Y-73900000D01*
X59342857Y-73947619D01*
X59295238Y-74042857D01*
X59295238Y-74280952D01*
X59342857Y-74376190D01*
X59390476Y-74423809D01*
X59485714Y-74471428D01*
X59676190Y-74471428D01*
X59771428Y-74423809D01*
X59819047Y-74376190D01*
X59866666Y-74280952D01*
D11*
%TO.C,C18*%
X64667857Y-103082142D02*
X64703571Y-103117857D01*
X64739285Y-103225000D01*
X64739285Y-103296428D01*
X64703571Y-103403571D01*
X64632142Y-103475000D01*
X64560714Y-103510714D01*
X64417857Y-103546428D01*
X64310714Y-103546428D01*
X64167857Y-103510714D01*
X64096428Y-103475000D01*
X64025000Y-103403571D01*
X63989285Y-103296428D01*
X63989285Y-103225000D01*
X64025000Y-103117857D01*
X64060714Y-103082142D01*
X64739285Y-102367857D02*
X64739285Y-102796428D01*
X64739285Y-102582142D02*
X63989285Y-102582142D01*
X64096428Y-102653571D01*
X64167857Y-102725000D01*
X64203571Y-102796428D01*
X64310714Y-101939285D02*
X64275000Y-102010714D01*
X64239285Y-102046428D01*
X64167857Y-102082142D01*
X64132142Y-102082142D01*
X64060714Y-102046428D01*
X64025000Y-102010714D01*
X63989285Y-101939285D01*
X63989285Y-101796428D01*
X64025000Y-101725000D01*
X64060714Y-101689285D01*
X64132142Y-101653571D01*
X64167857Y-101653571D01*
X64239285Y-101689285D01*
X64275000Y-101725000D01*
X64310714Y-101796428D01*
X64310714Y-101939285D01*
X64346428Y-102010714D01*
X64382142Y-102046428D01*
X64453571Y-102082142D01*
X64596428Y-102082142D01*
X64667857Y-102046428D01*
X64703571Y-102010714D01*
X64739285Y-101939285D01*
X64739285Y-101796428D01*
X64703571Y-101725000D01*
X64667857Y-101689285D01*
X64596428Y-101653571D01*
X64453571Y-101653571D01*
X64382142Y-101689285D01*
X64346428Y-101725000D01*
X64310714Y-101796428D01*
D10*
%TO.C,R5*%
X59652380Y-81966666D02*
X59176190Y-82300000D01*
X59652380Y-82538095D02*
X58652380Y-82538095D01*
X58652380Y-82157142D01*
X58700000Y-82061904D01*
X58747619Y-82014285D01*
X58842857Y-81966666D01*
X58985714Y-81966666D01*
X59080952Y-82014285D01*
X59128571Y-82061904D01*
X59176190Y-82157142D01*
X59176190Y-82538095D01*
X58652380Y-81061904D02*
X58652380Y-81538095D01*
X59128571Y-81585714D01*
X59080952Y-81538095D01*
X59033333Y-81442857D01*
X59033333Y-81204761D01*
X59080952Y-81109523D01*
X59128571Y-81061904D01*
X59223809Y-81014285D01*
X59461904Y-81014285D01*
X59557142Y-81061904D01*
X59604761Y-81109523D01*
X59652380Y-81204761D01*
X59652380Y-81442857D01*
X59604761Y-81538095D01*
X59557142Y-81585714D01*
%TO.C,R6*%
X56482380Y-79676666D02*
X56006190Y-80010000D01*
X56482380Y-80248095D02*
X55482380Y-80248095D01*
X55482380Y-79867142D01*
X55530000Y-79771904D01*
X55577619Y-79724285D01*
X55672857Y-79676666D01*
X55815714Y-79676666D01*
X55910952Y-79724285D01*
X55958571Y-79771904D01*
X56006190Y-79867142D01*
X56006190Y-80248095D01*
X55482380Y-78819523D02*
X55482380Y-79010000D01*
X55530000Y-79105238D01*
X55577619Y-79152857D01*
X55720476Y-79248095D01*
X55910952Y-79295714D01*
X56291904Y-79295714D01*
X56387142Y-79248095D01*
X56434761Y-79200476D01*
X56482380Y-79105238D01*
X56482380Y-78914761D01*
X56434761Y-78819523D01*
X56387142Y-78771904D01*
X56291904Y-78724285D01*
X56053809Y-78724285D01*
X55958571Y-78771904D01*
X55910952Y-78819523D01*
X55863333Y-78914761D01*
X55863333Y-79105238D01*
X55910952Y-79200476D01*
X55958571Y-79248095D01*
X56053809Y-79295714D01*
%TO.C,C10*%
X47157142Y-93362142D02*
X47204761Y-93397857D01*
X47252380Y-93505000D01*
X47252380Y-93576428D01*
X47204761Y-93683571D01*
X47109523Y-93755000D01*
X47014285Y-93790714D01*
X46823809Y-93826428D01*
X46680952Y-93826428D01*
X46490476Y-93790714D01*
X46395238Y-93755000D01*
X46300000Y-93683571D01*
X46252380Y-93576428D01*
X46252380Y-93505000D01*
X46300000Y-93397857D01*
X46347619Y-93362142D01*
X47252380Y-92647857D02*
X47252380Y-93076428D01*
X47252380Y-92862142D02*
X46252380Y-92862142D01*
X46395238Y-92933571D01*
X46490476Y-93005000D01*
X46538095Y-93076428D01*
X46252380Y-92183571D02*
X46252380Y-92112142D01*
X46300000Y-92040714D01*
X46347619Y-92005000D01*
X46442857Y-91969285D01*
X46633333Y-91933571D01*
X46871428Y-91933571D01*
X47061904Y-91969285D01*
X47157142Y-92005000D01*
X47204761Y-92040714D01*
X47252380Y-92112142D01*
X47252380Y-92183571D01*
X47204761Y-92255000D01*
X47157142Y-92290714D01*
X47061904Y-92326428D01*
X46871428Y-92362142D01*
X46633333Y-92362142D01*
X46442857Y-92326428D01*
X46347619Y-92290714D01*
X46300000Y-92255000D01*
X46252380Y-92183571D01*
%TO.C,SW1*%
X44794761Y-81733333D02*
X44842380Y-81590476D01*
X44842380Y-81352380D01*
X44794761Y-81257142D01*
X44747142Y-81209523D01*
X44651904Y-81161904D01*
X44556666Y-81161904D01*
X44461428Y-81209523D01*
X44413809Y-81257142D01*
X44366190Y-81352380D01*
X44318571Y-81542857D01*
X44270952Y-81638095D01*
X44223333Y-81685714D01*
X44128095Y-81733333D01*
X44032857Y-81733333D01*
X43937619Y-81685714D01*
X43890000Y-81638095D01*
X43842380Y-81542857D01*
X43842380Y-81304761D01*
X43890000Y-81161904D01*
X43842380Y-80828571D02*
X44842380Y-80590476D01*
X44128095Y-80400000D01*
X44842380Y-80209523D01*
X43842380Y-79971428D01*
X44842380Y-79066666D02*
X44842380Y-79638095D01*
X44842380Y-79352380D02*
X43842380Y-79352380D01*
X43985238Y-79447619D01*
X44080476Y-79542857D01*
X44128095Y-79638095D01*
%TO.C,R8*%
X75633333Y-93252380D02*
X75300000Y-92776190D01*
X75061904Y-93252380D02*
X75061904Y-92252380D01*
X75442857Y-92252380D01*
X75538095Y-92300000D01*
X75585714Y-92347619D01*
X75633333Y-92442857D01*
X75633333Y-92585714D01*
X75585714Y-92680952D01*
X75538095Y-92728571D01*
X75442857Y-92776190D01*
X75061904Y-92776190D01*
X76204761Y-92680952D02*
X76109523Y-92633333D01*
X76061904Y-92585714D01*
X76014285Y-92490476D01*
X76014285Y-92442857D01*
X76061904Y-92347619D01*
X76109523Y-92300000D01*
X76204761Y-92252380D01*
X76395238Y-92252380D01*
X76490476Y-92300000D01*
X76538095Y-92347619D01*
X76585714Y-92442857D01*
X76585714Y-92490476D01*
X76538095Y-92585714D01*
X76490476Y-92633333D01*
X76395238Y-92680952D01*
X76204761Y-92680952D01*
X76109523Y-92728571D01*
X76061904Y-92776190D01*
X76014285Y-92871428D01*
X76014285Y-93061904D01*
X76061904Y-93157142D01*
X76109523Y-93204761D01*
X76204761Y-93252380D01*
X76395238Y-93252380D01*
X76490476Y-93204761D01*
X76538095Y-93157142D01*
X76585714Y-93061904D01*
X76585714Y-92871428D01*
X76538095Y-92776190D01*
X76490476Y-92728571D01*
X76395238Y-92680952D01*
%TO.C,Q1*%
X72504761Y-93147619D02*
X72409523Y-93100000D01*
X72314285Y-93004761D01*
X72171428Y-92861904D01*
X72076190Y-92814285D01*
X71980952Y-92814285D01*
X72028571Y-93052380D02*
X71933333Y-93004761D01*
X71838095Y-92909523D01*
X71790476Y-92719047D01*
X71790476Y-92385714D01*
X71838095Y-92195238D01*
X71933333Y-92100000D01*
X72028571Y-92052380D01*
X72219047Y-92052380D01*
X72314285Y-92100000D01*
X72409523Y-92195238D01*
X72457142Y-92385714D01*
X72457142Y-92719047D01*
X72409523Y-92909523D01*
X72314285Y-93004761D01*
X72219047Y-93052380D01*
X72028571Y-93052380D01*
X73409523Y-93052380D02*
X72838095Y-93052380D01*
X73123809Y-93052380D02*
X73123809Y-92052380D01*
X73028571Y-92195238D01*
X72933333Y-92290476D01*
X72838095Y-92338095D01*
D11*
%TO.C,C12*%
X49117857Y-83667857D02*
X49082142Y-83703571D01*
X48975000Y-83739285D01*
X48903571Y-83739285D01*
X48796428Y-83703571D01*
X48725000Y-83632142D01*
X48689285Y-83560714D01*
X48653571Y-83417857D01*
X48653571Y-83310714D01*
X48689285Y-83167857D01*
X48725000Y-83096428D01*
X48796428Y-83025000D01*
X48903571Y-82989285D01*
X48975000Y-82989285D01*
X49082142Y-83025000D01*
X49117857Y-83060714D01*
X49832142Y-83739285D02*
X49403571Y-83739285D01*
X49617857Y-83739285D02*
X49617857Y-82989285D01*
X49546428Y-83096428D01*
X49475000Y-83167857D01*
X49403571Y-83203571D01*
X50117857Y-83060714D02*
X50153571Y-83025000D01*
X50225000Y-82989285D01*
X50403571Y-82989285D01*
X50475000Y-83025000D01*
X50510714Y-83060714D01*
X50546428Y-83132142D01*
X50546428Y-83203571D01*
X50510714Y-83310714D01*
X50082142Y-83739285D01*
X50546428Y-83739285D01*
%TO.C,U1*%
X64726190Y-82580952D02*
X65130952Y-82580952D01*
X65178571Y-82557142D01*
X65202380Y-82533333D01*
X65226190Y-82485714D01*
X65226190Y-82390476D01*
X65202380Y-82342857D01*
X65178571Y-82319047D01*
X65130952Y-82295238D01*
X64726190Y-82295238D01*
X65226190Y-81795238D02*
X65226190Y-82080952D01*
X65226190Y-81938095D02*
X64726190Y-81938095D01*
X64797619Y-81985714D01*
X64845238Y-82033333D01*
X64869047Y-82080952D01*
D10*
%TO.C,C5*%
X50033333Y-81557142D02*
X49985714Y-81604761D01*
X49842857Y-81652380D01*
X49747619Y-81652380D01*
X49604761Y-81604761D01*
X49509523Y-81509523D01*
X49461904Y-81414285D01*
X49414285Y-81223809D01*
X49414285Y-81080952D01*
X49461904Y-80890476D01*
X49509523Y-80795238D01*
X49604761Y-80700000D01*
X49747619Y-80652380D01*
X49842857Y-80652380D01*
X49985714Y-80700000D01*
X50033333Y-80747619D01*
X50938095Y-80652380D02*
X50461904Y-80652380D01*
X50414285Y-81128571D01*
X50461904Y-81080952D01*
X50557142Y-81033333D01*
X50795238Y-81033333D01*
X50890476Y-81080952D01*
X50938095Y-81128571D01*
X50985714Y-81223809D01*
X50985714Y-81461904D01*
X50938095Y-81557142D01*
X50890476Y-81604761D01*
X50795238Y-81652380D01*
X50557142Y-81652380D01*
X50461904Y-81604761D01*
X50414285Y-81557142D01*
%TO.C,C9*%
X49275000Y-94557142D02*
X49239285Y-94604761D01*
X49132142Y-94652380D01*
X49060714Y-94652380D01*
X48953571Y-94604761D01*
X48882142Y-94509523D01*
X48846428Y-94414285D01*
X48810714Y-94223809D01*
X48810714Y-94080952D01*
X48846428Y-93890476D01*
X48882142Y-93795238D01*
X48953571Y-93700000D01*
X49060714Y-93652380D01*
X49132142Y-93652380D01*
X49239285Y-93700000D01*
X49275000Y-93747619D01*
X49632142Y-94652380D02*
X49775000Y-94652380D01*
X49846428Y-94604761D01*
X49882142Y-94557142D01*
X49953571Y-94414285D01*
X49989285Y-94223809D01*
X49989285Y-93842857D01*
X49953571Y-93747619D01*
X49917857Y-93700000D01*
X49846428Y-93652380D01*
X49703571Y-93652380D01*
X49632142Y-93700000D01*
X49596428Y-93747619D01*
X49560714Y-93842857D01*
X49560714Y-94080952D01*
X49596428Y-94176190D01*
X49632142Y-94223809D01*
X49703571Y-94271428D01*
X49846428Y-94271428D01*
X49917857Y-94223809D01*
X49953571Y-94176190D01*
X49989285Y-94080952D01*
%TO.C,C19*%
X53957142Y-105557142D02*
X53909523Y-105604761D01*
X53766666Y-105652380D01*
X53671428Y-105652380D01*
X53528571Y-105604761D01*
X53433333Y-105509523D01*
X53385714Y-105414285D01*
X53338095Y-105223809D01*
X53338095Y-105080952D01*
X53385714Y-104890476D01*
X53433333Y-104795238D01*
X53528571Y-104700000D01*
X53671428Y-104652380D01*
X53766666Y-104652380D01*
X53909523Y-104700000D01*
X53957142Y-104747619D01*
X54909523Y-105652380D02*
X54338095Y-105652380D01*
X54623809Y-105652380D02*
X54623809Y-104652380D01*
X54528571Y-104795238D01*
X54433333Y-104890476D01*
X54338095Y-104938095D01*
X55385714Y-105652380D02*
X55576190Y-105652380D01*
X55671428Y-105604761D01*
X55719047Y-105557142D01*
X55814285Y-105414285D01*
X55861904Y-105223809D01*
X55861904Y-104842857D01*
X55814285Y-104747619D01*
X55766666Y-104700000D01*
X55671428Y-104652380D01*
X55480952Y-104652380D01*
X55385714Y-104700000D01*
X55338095Y-104747619D01*
X55290476Y-104842857D01*
X55290476Y-105080952D01*
X55338095Y-105176190D01*
X55385714Y-105223809D01*
X55480952Y-105271428D01*
X55671428Y-105271428D01*
X55766666Y-105223809D01*
X55814285Y-105176190D01*
X55861904Y-105080952D01*
D11*
%TO.C,C16*%
X49867857Y-86482142D02*
X49903571Y-86517857D01*
X49939285Y-86625000D01*
X49939285Y-86696428D01*
X49903571Y-86803571D01*
X49832142Y-86875000D01*
X49760714Y-86910714D01*
X49617857Y-86946428D01*
X49510714Y-86946428D01*
X49367857Y-86910714D01*
X49296428Y-86875000D01*
X49225000Y-86803571D01*
X49189285Y-86696428D01*
X49189285Y-86625000D01*
X49225000Y-86517857D01*
X49260714Y-86482142D01*
X49939285Y-85767857D02*
X49939285Y-86196428D01*
X49939285Y-85982142D02*
X49189285Y-85982142D01*
X49296428Y-86053571D01*
X49367857Y-86125000D01*
X49403571Y-86196428D01*
X49189285Y-85125000D02*
X49189285Y-85267857D01*
X49225000Y-85339285D01*
X49260714Y-85375000D01*
X49367857Y-85446428D01*
X49510714Y-85482142D01*
X49796428Y-85482142D01*
X49867857Y-85446428D01*
X49903571Y-85410714D01*
X49939285Y-85339285D01*
X49939285Y-85196428D01*
X49903571Y-85125000D01*
X49867857Y-85089285D01*
X49796428Y-85053571D01*
X49617857Y-85053571D01*
X49546428Y-85089285D01*
X49510714Y-85125000D01*
X49475000Y-85196428D01*
X49475000Y-85339285D01*
X49510714Y-85410714D01*
X49546428Y-85446428D01*
X49617857Y-85482142D01*
D10*
%TO.C,C8*%
X51033333Y-82757142D02*
X50985714Y-82804761D01*
X50842857Y-82852380D01*
X50747619Y-82852380D01*
X50604761Y-82804761D01*
X50509523Y-82709523D01*
X50461904Y-82614285D01*
X50414285Y-82423809D01*
X50414285Y-82280952D01*
X50461904Y-82090476D01*
X50509523Y-81995238D01*
X50604761Y-81900000D01*
X50747619Y-81852380D01*
X50842857Y-81852380D01*
X50985714Y-81900000D01*
X51033333Y-81947619D01*
X51604761Y-82280952D02*
X51509523Y-82233333D01*
X51461904Y-82185714D01*
X51414285Y-82090476D01*
X51414285Y-82042857D01*
X51461904Y-81947619D01*
X51509523Y-81900000D01*
X51604761Y-81852380D01*
X51795238Y-81852380D01*
X51890476Y-81900000D01*
X51938095Y-81947619D01*
X51985714Y-82042857D01*
X51985714Y-82090476D01*
X51938095Y-82185714D01*
X51890476Y-82233333D01*
X51795238Y-82280952D01*
X51604761Y-82280952D01*
X51509523Y-82328571D01*
X51461904Y-82376190D01*
X51414285Y-82471428D01*
X51414285Y-82661904D01*
X51461904Y-82757142D01*
X51509523Y-82804761D01*
X51604761Y-82852380D01*
X51795238Y-82852380D01*
X51890476Y-82804761D01*
X51938095Y-82757142D01*
X51985714Y-82661904D01*
X51985714Y-82471428D01*
X51938095Y-82376190D01*
X51890476Y-82328571D01*
X51795238Y-82280952D01*
%TO.C,R7*%
X70852380Y-93366666D02*
X70376190Y-93700000D01*
X70852380Y-93938095D02*
X69852380Y-93938095D01*
X69852380Y-93557142D01*
X69900000Y-93461904D01*
X69947619Y-93414285D01*
X70042857Y-93366666D01*
X70185714Y-93366666D01*
X70280952Y-93414285D01*
X70328571Y-93461904D01*
X70376190Y-93557142D01*
X70376190Y-93938095D01*
X69852380Y-93033333D02*
X69852380Y-92366666D01*
X70852380Y-92795238D01*
%TO.C,J1*%
X80066666Y-93452380D02*
X80066666Y-94166666D01*
X80019047Y-94309523D01*
X79923809Y-94404761D01*
X79780952Y-94452380D01*
X79685714Y-94452380D01*
X81066666Y-94452380D02*
X80495238Y-94452380D01*
X80780952Y-94452380D02*
X80780952Y-93452380D01*
X80685714Y-93595238D01*
X80590476Y-93690476D01*
X80495238Y-93738095D01*
%TO.C,C11*%
X48357142Y-98957142D02*
X48309523Y-99004761D01*
X48166666Y-99052380D01*
X48071428Y-99052380D01*
X47928571Y-99004761D01*
X47833333Y-98909523D01*
X47785714Y-98814285D01*
X47738095Y-98623809D01*
X47738095Y-98480952D01*
X47785714Y-98290476D01*
X47833333Y-98195238D01*
X47928571Y-98100000D01*
X48071428Y-98052380D01*
X48166666Y-98052380D01*
X48309523Y-98100000D01*
X48357142Y-98147619D01*
X49309523Y-99052380D02*
X48738095Y-99052380D01*
X49023809Y-99052380D02*
X49023809Y-98052380D01*
X48928571Y-98195238D01*
X48833333Y-98290476D01*
X48738095Y-98338095D01*
X50261904Y-99052380D02*
X49690476Y-99052380D01*
X49976190Y-99052380D02*
X49976190Y-98052380D01*
X49880952Y-98195238D01*
X49785714Y-98290476D01*
X49690476Y-98338095D01*
%TO.C,J4*%
X76066666Y-103452380D02*
X76066666Y-104166666D01*
X76019047Y-104309523D01*
X75923809Y-104404761D01*
X75780952Y-104452380D01*
X75685714Y-104452380D01*
X76971428Y-103785714D02*
X76971428Y-104452380D01*
X76733333Y-103404761D02*
X76495238Y-104119047D01*
X77114285Y-104119047D01*
D12*
%TO.C,C14*%
X64492164Y-86440000D02*
X64707836Y-86440000D01*
X64492164Y-87160000D02*
X64707836Y-87160000D01*
%TO.C,C1*%
X72138748Y-83465000D02*
X72661252Y-83465000D01*
X72138748Y-84935000D02*
X72661252Y-84935000D01*
%TO.C,C2*%
X73665000Y-75538748D02*
X73665000Y-76061252D01*
X75135000Y-75538748D02*
X75135000Y-76061252D01*
%TO.C,R4*%
X77846359Y-89580000D02*
X78153641Y-89580000D01*
X77846359Y-88820000D02*
X78153641Y-88820000D01*
%TO.C,U3*%
X52640000Y-95110000D02*
X51690000Y-95110000D01*
X51690000Y-95110000D02*
X51690000Y-94160000D01*
X51690000Y-85840000D02*
X50350000Y-85840000D01*
X52640000Y-84890000D02*
X51690000Y-84890000D01*
X61910000Y-84890000D02*
X61910000Y-85840000D01*
X51690000Y-84890000D02*
X51690000Y-85840000D01*
X60960000Y-84890000D02*
X61910000Y-84890000D01*
X60960000Y-95110000D02*
X61910000Y-95110000D01*
X61910000Y-95110000D02*
X61910000Y-94160000D01*
%TO.C,C3*%
X52738748Y-80335000D02*
X53261252Y-80335000D01*
X52738748Y-78865000D02*
X53261252Y-78865000D01*
D10*
%TO.C,U2*%
X57850000Y-99050000D02*
X57850000Y-99575000D01*
X57850000Y-103350000D02*
X57850000Y-102825000D01*
X62150000Y-103350000D02*
X61625000Y-103350000D01*
X62150000Y-99050000D02*
X62150000Y-99575000D01*
X57850000Y-103350000D02*
X58375000Y-103350000D01*
X57850000Y-99050000D02*
X58375000Y-99050000D01*
X62150000Y-103350000D02*
X62150000Y-102825000D01*
D12*
%TO.C,Y1*%
X43950000Y-85000000D02*
X43950000Y-89000000D01*
X47250000Y-85000000D02*
X43950000Y-85000000D01*
%TO.C,D2*%
X75865000Y-77085000D02*
X77335000Y-77085000D01*
X75865000Y-74800000D02*
X75865000Y-77085000D01*
X77335000Y-77085000D02*
X77335000Y-74800000D01*
%TO.C,R1*%
X75753641Y-78580000D02*
X75446359Y-78580000D01*
X75753641Y-77820000D02*
X75446359Y-77820000D01*
%TO.C,FB1*%
X49637221Y-96490000D02*
X49962779Y-96490000D01*
X49637221Y-97510000D02*
X49962779Y-97510000D01*
%TO.C,D1*%
X70160000Y-84800000D02*
X70160000Y-85450000D01*
X67040000Y-84800000D02*
X67040000Y-86475000D01*
X70160000Y-84800000D02*
X70160000Y-84150000D01*
X67040000Y-84800000D02*
X67040000Y-84150000D01*
%TO.C,R3*%
X77756359Y-88180000D02*
X78063641Y-88180000D01*
X77756359Y-87420000D02*
X78063641Y-87420000D01*
%TO.C,R2*%
X47246359Y-76180000D02*
X47553641Y-76180000D01*
X47246359Y-75420000D02*
X47553641Y-75420000D01*
%TO.C,C6*%
X53907836Y-97760000D02*
X53692164Y-97760000D01*
X53907836Y-97040000D02*
X53692164Y-97040000D01*
%TO.C,C15*%
X48040000Y-86307836D02*
X48040000Y-86092164D01*
X48760000Y-86307836D02*
X48760000Y-86092164D01*
%TO.C,C17*%
X53907836Y-101360000D02*
X53692164Y-101360000D01*
X53907836Y-100640000D02*
X53692164Y-100640000D01*
%TO.C,C13*%
X62292164Y-96160000D02*
X62507836Y-96160000D01*
X62292164Y-95440000D02*
X62507836Y-95440000D01*
%TO.C,C7*%
X53907836Y-98240000D02*
X53692164Y-98240000D01*
X53907836Y-98960000D02*
X53692164Y-98960000D01*
%TO.C,C4*%
X53907836Y-100160000D02*
X53692164Y-100160000D01*
X53907836Y-99440000D02*
X53692164Y-99440000D01*
%TO.C,C18*%
X63040000Y-102292164D02*
X63040000Y-102507836D01*
X63760000Y-102292164D02*
X63760000Y-102507836D01*
%TO.C,R5*%
X58620000Y-79753641D02*
X58620000Y-79446359D01*
X59380000Y-79753641D02*
X59380000Y-79446359D01*
%TO.C,R6*%
X56820000Y-79663641D02*
X56820000Y-79356359D01*
X57580000Y-79663641D02*
X57580000Y-79356359D01*
%TO.C,C10*%
X48360000Y-92587836D02*
X48360000Y-92372164D01*
X47640000Y-92587836D02*
X47640000Y-92372164D01*
%TO.C,SW1*%
X45390000Y-81960000D02*
X45390000Y-78839000D01*
X48210000Y-81960000D02*
X48210000Y-78839000D01*
X46250000Y-83950000D02*
X46250000Y-83139000D01*
%TO.C,R8*%
X76153641Y-91020000D02*
X75846359Y-91020000D01*
X76153641Y-91780000D02*
X75846359Y-91780000D01*
%TO.C,Q1*%
X73680000Y-89440000D02*
X72270000Y-89440000D01*
X72270000Y-91760000D02*
X74300000Y-91760000D01*
X72270000Y-90100000D02*
X72270000Y-89440000D01*
X72270000Y-91760000D02*
X72270000Y-91100000D01*
%TO.C,C12*%
X51507836Y-84560000D02*
X51292164Y-84560000D01*
X51507836Y-83840000D02*
X51292164Y-83840000D01*
%TO.C,U1*%
X72610000Y-76090000D02*
X71350000Y-76090000D01*
X65790000Y-76090000D02*
X67050000Y-76090000D01*
X65790000Y-82100000D02*
X65790000Y-76090000D01*
X72610000Y-79850000D02*
X72610000Y-76090000D01*
%TO.C,C5*%
X53092164Y-81040000D02*
X53307836Y-81040000D01*
X53092164Y-81760000D02*
X53307836Y-81760000D01*
%TO.C,C9*%
X49560000Y-92587836D02*
X49560000Y-92372164D01*
X48840000Y-92587836D02*
X48840000Y-92372164D01*
%TO.C,C19*%
X57160000Y-101892164D02*
X57160000Y-102107836D01*
X56440000Y-101892164D02*
X56440000Y-102107836D01*
%TO.C,C16*%
X47640000Y-88307836D02*
X47640000Y-88092164D01*
X48360000Y-88307836D02*
X48360000Y-88092164D01*
%TO.C,C8*%
X53092164Y-82240000D02*
X53307836Y-82240000D01*
X53092164Y-82960000D02*
X53307836Y-82960000D01*
%TO.C,R7*%
X69820000Y-91046359D02*
X69820000Y-91353641D01*
X70580000Y-91046359D02*
X70580000Y-91353641D01*
D10*
%TO.C,J1*%
X80220000Y-90000000D02*
X80645000Y-90000000D01*
X86345000Y-92350000D02*
X86345000Y-92050000D01*
X86795000Y-84350000D02*
X86345000Y-84350000D01*
X80645000Y-90000000D02*
X80645000Y-91000000D01*
X80220000Y-89275000D02*
X80220000Y-90000000D01*
X86345000Y-84050000D02*
X86195000Y-84050000D01*
X80645000Y-86400000D02*
X80645000Y-85400000D01*
X86195000Y-92350000D02*
X86345000Y-92350000D01*
X86345000Y-84350000D02*
X86345000Y-84050000D01*
X82395000Y-92350000D02*
X83795000Y-92350000D01*
X83795000Y-84050000D02*
X82395000Y-84050000D01*
X86345000Y-92050000D02*
X86795000Y-92050000D01*
D12*
%TO.C,C11*%
X51292164Y-98960000D02*
X51507836Y-98960000D01*
X51292164Y-98240000D02*
X51507836Y-98240000D01*
%TD*%
M02*
