%TF.GenerationSoftware,KiCad,Pcbnew,6.0.6-3a73a75311~116~ubuntu20.04.1*%
%TF.CreationDate,2022-07-21T13:32:11-07:00*%
%TF.ProjectId,Drone Flight Controller,44726f6e-6520-4466-9c69-67687420436f,rev?*%
%TF.SameCoordinates,Original*%
%TF.FileFunction,Copper,L1,Top*%
%TF.FilePolarity,Positive*%
%FSLAX46Y46*%
G04 Gerber Fmt 4.6, Leading zero omitted, Abs format (unit mm)*
G04 Created by KiCad (PCBNEW 6.0.6-3a73a75311~116~ubuntu20.04.1) date 2022-07-21 13:32:11*
%MOMM*%
%LPD*%
G01*
G04 APERTURE LIST*
G04 Aperture macros list*
%AMRoundRect*
0 Rectangle with rounded corners*
0 $1 Rounding radius*
0 $2 $3 $4 $5 $6 $7 $8 $9 X,Y pos of 4 corners*
0 Add a 4 corners polygon primitive as box body*
4,1,4,$2,$3,$4,$5,$6,$7,$8,$9,$2,$3,0*
0 Add four circle primitives for the rounded corners*
1,1,$1+$1,$2,$3*
1,1,$1+$1,$4,$5*
1,1,$1+$1,$6,$7*
1,1,$1+$1,$8,$9*
0 Add four rect primitives between the rounded corners*
20,1,$1+$1,$2,$3,$4,$5,0*
20,1,$1+$1,$4,$5,$6,$7,0*
20,1,$1+$1,$6,$7,$8,$9,0*
20,1,$1+$1,$8,$9,$2,$3,0*%
G04 Aperture macros list end*
%TA.AperFunction,SMDPad,CuDef*%
%ADD10RoundRect,0.250000X0.750000X-0.250000X0.750000X0.250000X-0.750000X0.250000X-0.750000X-0.250000X0*%
%TD*%
%TA.AperFunction,SMDPad,CuDef*%
%ADD11RoundRect,0.250000X0.250000X0.750000X-0.250000X0.750000X-0.250000X-0.750000X0.250000X-0.750000X0*%
%TD*%
%TA.AperFunction,SMDPad,CuDef*%
%ADD12RoundRect,0.140000X-0.140000X-0.170000X0.140000X-0.170000X0.140000X0.170000X-0.140000X0.170000X0*%
%TD*%
%TA.AperFunction,SMDPad,CuDef*%
%ADD13RoundRect,0.250000X-0.250000X-0.475000X0.250000X-0.475000X0.250000X0.475000X-0.250000X0.475000X0*%
%TD*%
%TA.AperFunction,SMDPad,CuDef*%
%ADD14RoundRect,0.250000X-0.250000X-0.750000X0.250000X-0.750000X0.250000X0.750000X-0.250000X0.750000X0*%
%TD*%
%TA.AperFunction,SMDPad,CuDef*%
%ADD15RoundRect,0.250000X-0.475000X0.250000X-0.475000X-0.250000X0.475000X-0.250000X0.475000X0.250000X0*%
%TD*%
%TA.AperFunction,SMDPad,CuDef*%
%ADD16RoundRect,0.135000X-0.135000X-0.185000X0.135000X-0.185000X0.135000X0.185000X-0.135000X0.185000X0*%
%TD*%
%TA.AperFunction,SMDPad,CuDef*%
%ADD17RoundRect,0.075000X-0.700000X-0.075000X0.700000X-0.075000X0.700000X0.075000X-0.700000X0.075000X0*%
%TD*%
%TA.AperFunction,SMDPad,CuDef*%
%ADD18RoundRect,0.075000X-0.075000X-0.700000X0.075000X-0.700000X0.075000X0.700000X-0.075000X0.700000X0*%
%TD*%
%TA.AperFunction,SMDPad,CuDef*%
%ADD19RoundRect,0.075000X-0.075000X0.350000X-0.075000X-0.350000X0.075000X-0.350000X0.075000X0.350000X0*%
%TD*%
%TA.AperFunction,SMDPad,CuDef*%
%ADD20RoundRect,0.075000X-0.350000X-0.075000X0.350000X-0.075000X0.350000X0.075000X-0.350000X0.075000X0*%
%TD*%
%TA.AperFunction,SMDPad,CuDef*%
%ADD21R,1.200000X1.400000*%
%TD*%
%TA.AperFunction,SMDPad,CuDef*%
%ADD22RoundRect,0.250000X-0.750000X0.250000X-0.750000X-0.250000X0.750000X-0.250000X0.750000X0.250000X0*%
%TD*%
%TA.AperFunction,SMDPad,CuDef*%
%ADD23RoundRect,0.218750X0.256250X-0.218750X0.256250X0.218750X-0.256250X0.218750X-0.256250X-0.218750X0*%
%TD*%
%TA.AperFunction,SMDPad,CuDef*%
%ADD24RoundRect,0.135000X0.135000X0.185000X-0.135000X0.185000X-0.135000X-0.185000X0.135000X-0.185000X0*%
%TD*%
%TA.AperFunction,SMDPad,CuDef*%
%ADD25RoundRect,0.218750X-0.218750X-0.256250X0.218750X-0.256250X0.218750X0.256250X-0.218750X0.256250X0*%
%TD*%
%TA.AperFunction,SMDPad,CuDef*%
%ADD26RoundRect,0.150000X0.150000X-0.587500X0.150000X0.587500X-0.150000X0.587500X-0.150000X-0.587500X0*%
%TD*%
%TA.AperFunction,SMDPad,CuDef*%
%ADD27RoundRect,0.140000X0.140000X0.170000X-0.140000X0.170000X-0.140000X-0.170000X0.140000X-0.170000X0*%
%TD*%
%TA.AperFunction,SMDPad,CuDef*%
%ADD28RoundRect,0.140000X0.170000X-0.140000X0.170000X0.140000X-0.170000X0.140000X-0.170000X-0.140000X0*%
%TD*%
%TA.AperFunction,SMDPad,CuDef*%
%ADD29RoundRect,0.140000X-0.170000X0.140000X-0.170000X-0.140000X0.170000X-0.140000X0.170000X0.140000X0*%
%TD*%
%TA.AperFunction,SMDPad,CuDef*%
%ADD30RoundRect,0.135000X0.185000X-0.135000X0.185000X0.135000X-0.185000X0.135000X-0.185000X-0.135000X0*%
%TD*%
%TA.AperFunction,SMDPad,CuDef*%
%ADD31R,0.500000X1.200000*%
%TD*%
%TA.AperFunction,SMDPad,CuDef*%
%ADD32R,0.700000X0.700000*%
%TD*%
%TA.AperFunction,SMDPad,CuDef*%
%ADD33R,0.700000X0.450000*%
%TD*%
%TA.AperFunction,SMDPad,CuDef*%
%ADD34R,1.500000X2.000000*%
%TD*%
%TA.AperFunction,SMDPad,CuDef*%
%ADD35R,3.800000X2.000000*%
%TD*%
%TA.AperFunction,SMDPad,CuDef*%
%ADD36RoundRect,0.135000X-0.185000X0.135000X-0.185000X-0.135000X0.185000X-0.135000X0.185000X0.135000X0*%
%TD*%
%TA.AperFunction,SMDPad,CuDef*%
%ADD37R,1.300000X0.450000*%
%TD*%
%TA.AperFunction,ComponentPad*%
%ADD38O,2.000000X1.450000*%
%TD*%
%TA.AperFunction,ComponentPad*%
%ADD39O,1.800000X1.150000*%
%TD*%
%TA.AperFunction,ViaPad*%
%ADD40C,0.800000*%
%TD*%
%TA.AperFunction,Conductor*%
%ADD41C,0.500000*%
%TD*%
%TA.AperFunction,Conductor*%
%ADD42C,0.300000*%
%TD*%
%TA.AperFunction,Conductor*%
%ADD43C,0.250000*%
%TD*%
G04 APERTURE END LIST*
D10*
%TO.P,,1,Pin_1*%
%TO.N,GND*%
X79600000Y-81200000D03*
%TD*%
%TO.P,,1,Pin_1*%
%TO.N,VDD*%
X79600000Y-79200000D03*
%TD*%
D11*
%TO.P,J5,1,Pin_1*%
%TO.N,Net-(J5-Pad1)*%
X78600000Y-101800000D03*
%TD*%
D12*
%TO.P,C14,1*%
%TO.N,Net-(C14-Pad1)*%
X64120000Y-86800000D03*
%TO.P,C14,2*%
%TO.N,GND*%
X65080000Y-86800000D03*
%TD*%
D13*
%TO.P,C1,1*%
%TO.N,+5V*%
X71450000Y-84200000D03*
%TO.P,C1,2*%
%TO.N,GND*%
X73350000Y-84200000D03*
%TD*%
D14*
%TO.P,J11,1,Pin_1*%
%TO.N,Net-(J11-Pad1)*%
X57200000Y-76600000D03*
%TD*%
D15*
%TO.P,C2,1*%
%TO.N,+3.3V*%
X74400000Y-74850000D03*
%TO.P,C2,2*%
%TO.N,GND*%
X74400000Y-76750000D03*
%TD*%
D16*
%TO.P,R4,1*%
%TO.N,/USB_OTG_FS_DM*%
X77490000Y-89200000D03*
%TO.P,R4,2*%
%TO.N,Net-(J1-Pad2)*%
X78510000Y-89200000D03*
%TD*%
D17*
%TO.P,U3,1,VBAT*%
%TO.N,+3.3V*%
X51125000Y-86250000D03*
%TO.P,U3,2,PC13*%
%TO.N,unconnected-(U3-Pad2)*%
X51125000Y-86750000D03*
%TO.P,U3,3,PC14*%
%TO.N,unconnected-(U3-Pad3)*%
X51125000Y-87250000D03*
%TO.P,U3,4,PC15*%
%TO.N,unconnected-(U3-Pad4)*%
X51125000Y-87750000D03*
%TO.P,U3,5,PH0*%
%TO.N,/RCC_OSC_IN*%
X51125000Y-88250000D03*
%TO.P,U3,6,PH1*%
%TO.N,/RCC_OSC_OUT*%
X51125000Y-88750000D03*
%TO.P,U3,7,NRST*%
%TO.N,/NRST*%
X51125000Y-89250000D03*
%TO.P,U3,8,PC0*%
%TO.N,/S1*%
X51125000Y-89750000D03*
%TO.P,U3,9,PC1*%
%TO.N,/S4*%
X51125000Y-90250000D03*
%TO.P,U3,10,PC2*%
%TO.N,/S3*%
X51125000Y-90750000D03*
%TO.P,U3,11,PC3*%
%TO.N,/S2*%
X51125000Y-91250000D03*
%TO.P,U3,12,VSSA*%
%TO.N,GND*%
X51125000Y-91750000D03*
%TO.P,U3,13,VDDA*%
%TO.N,+3.3VA*%
X51125000Y-92250000D03*
%TO.P,U3,14,PA0*%
%TO.N,unconnected-(U3-Pad14)*%
X51125000Y-92750000D03*
%TO.P,U3,15,PA1*%
%TO.N,unconnected-(U3-Pad15)*%
X51125000Y-93250000D03*
%TO.P,U3,16,PA2*%
%TO.N,unconnected-(U3-Pad16)*%
X51125000Y-93750000D03*
D18*
%TO.P,U3,17,PA3*%
%TO.N,unconnected-(U3-Pad17)*%
X53050000Y-95675000D03*
%TO.P,U3,18,VSS*%
%TO.N,GND*%
X53550000Y-95675000D03*
%TO.P,U3,19,VDD*%
%TO.N,+3.3V*%
X54050000Y-95675000D03*
%TO.P,U3,20,PA4*%
%TO.N,unconnected-(U3-Pad20)*%
X54550000Y-95675000D03*
%TO.P,U3,21,PA5*%
%TO.N,SPI1_SCLK*%
X55050000Y-95675000D03*
%TO.P,U3,22,PA6*%
%TO.N,SPI1_MISO*%
X55550000Y-95675000D03*
%TO.P,U3,23,PA7*%
%TO.N,SPI1_MOSI*%
X56050000Y-95675000D03*
%TO.P,U3,24,PC4*%
%TO.N,GYRO_INT*%
X56550000Y-95675000D03*
%TO.P,U3,25,PC5*%
%TO.N,unconnected-(U3-Pad25)*%
X57050000Y-95675000D03*
%TO.P,U3,26,PB0*%
%TO.N,unconnected-(U3-Pad26)*%
X57550000Y-95675000D03*
%TO.P,U3,27,PB1*%
%TO.N,unconnected-(U3-Pad27)*%
X58050000Y-95675000D03*
%TO.P,U3,28,PB2*%
%TO.N,unconnected-(U3-Pad28)*%
X58550000Y-95675000D03*
%TO.P,U3,29,PB10*%
%TO.N,/UART3_TX*%
X59050000Y-95675000D03*
%TO.P,U3,30,PB11*%
%TO.N,/UART3_RX*%
X59550000Y-95675000D03*
%TO.P,U3,31,VCAP_1*%
%TO.N,Net-(C13-Pad1)*%
X60050000Y-95675000D03*
%TO.P,U3,32,VDD*%
%TO.N,+3.3V*%
X60550000Y-95675000D03*
D17*
%TO.P,U3,33,PB12*%
%TO.N,unconnected-(U3-Pad33)*%
X62475000Y-93750000D03*
%TO.P,U3,34,PB13*%
%TO.N,unconnected-(U3-Pad34)*%
X62475000Y-93250000D03*
%TO.P,U3,35,PB14*%
%TO.N,unconnected-(U3-Pad35)*%
X62475000Y-92750000D03*
%TO.P,U3,36,PB15*%
%TO.N,unconnected-(U3-Pad36)*%
X62475000Y-92250000D03*
%TO.P,U3,37,PC6*%
%TO.N,/UART6_TX*%
X62475000Y-91750000D03*
%TO.P,U3,38,PC7*%
%TO.N,/UART6_RX*%
X62475000Y-91250000D03*
%TO.P,U3,39,PC8*%
%TO.N,unconnected-(U3-Pad39)*%
X62475000Y-90750000D03*
%TO.P,U3,40,PC9*%
%TO.N,/PPM_IN*%
X62475000Y-90250000D03*
%TO.P,U3,41,PA8*%
%TO.N,unconnected-(U3-Pad41)*%
X62475000Y-89750000D03*
%TO.P,U3,42,PA9*%
%TO.N,/UART1_TX*%
X62475000Y-89250000D03*
%TO.P,U3,43,PA10*%
%TO.N,UART1_RX_OUT*%
X62475000Y-88750000D03*
%TO.P,U3,44,PA11*%
%TO.N,/USB_OTG_FS_DM*%
X62475000Y-88250000D03*
%TO.P,U3,45,PA12*%
%TO.N,/USB_OTG_FS_DP*%
X62475000Y-87750000D03*
%TO.P,U3,46,PA13*%
%TO.N,unconnected-(U3-Pad46)*%
X62475000Y-87250000D03*
%TO.P,U3,47,VCAP_2*%
%TO.N,Net-(C14-Pad1)*%
X62475000Y-86750000D03*
%TO.P,U3,48,VDD*%
%TO.N,+3.3V*%
X62475000Y-86250000D03*
D18*
%TO.P,U3,49,PA14*%
%TO.N,unconnected-(U3-Pad49)*%
X60550000Y-84325000D03*
%TO.P,U3,50,PA15*%
%TO.N,unconnected-(U3-Pad50)*%
X60050000Y-84325000D03*
%TO.P,U3,51,PC10*%
%TO.N,unconnected-(U3-Pad51)*%
X59550000Y-84325000D03*
%TO.P,U3,52,PC11*%
%TO.N,unconnected-(U3-Pad52)*%
X59050000Y-84325000D03*
%TO.P,U3,53,PC12*%
%TO.N,unconnected-(U3-Pad53)*%
X58550000Y-84325000D03*
%TO.P,U3,54,PD2*%
%TO.N,unconnected-(U3-Pad54)*%
X58050000Y-84325000D03*
%TO.P,U3,55,PB3*%
%TO.N,unconnected-(U3-Pad55)*%
X57550000Y-84325000D03*
%TO.P,U3,56,PB4*%
%TO.N,unconnected-(U3-Pad56)*%
X57050000Y-84325000D03*
%TO.P,U3,57,PB5*%
%TO.N,unconnected-(U3-Pad57)*%
X56550000Y-84325000D03*
%TO.P,U3,58,PB6*%
%TO.N,/SCL_PAD*%
X56050000Y-84325000D03*
%TO.P,U3,59,PB7*%
%TO.N,/SDA_PAD*%
X55550000Y-84325000D03*
%TO.P,U3,60,BOOT0*%
%TO.N,/BOOT0*%
X55050000Y-84325000D03*
%TO.P,U3,61,PB8*%
%TO.N,unconnected-(U3-Pad61)*%
X54550000Y-84325000D03*
%TO.P,U3,62,PB9*%
%TO.N,unconnected-(U3-Pad62)*%
X54050000Y-84325000D03*
%TO.P,U3,63,VSS*%
%TO.N,GND*%
X53550000Y-84325000D03*
%TO.P,U3,64,VDD*%
%TO.N,+3.3V*%
X53050000Y-84325000D03*
%TD*%
D13*
%TO.P,C3,1*%
%TO.N,+3.3V*%
X52050000Y-79600000D03*
%TO.P,C3,2*%
%TO.N,GND*%
X53950000Y-79600000D03*
%TD*%
D19*
%TO.P,U2,1,CLKIN*%
%TO.N,GND*%
X61250000Y-99250000D03*
%TO.P,U2,2*%
%TO.N,N/C*%
X60750000Y-99250000D03*
%TO.P,U2,3*%
X60250000Y-99250000D03*
%TO.P,U2,4*%
X59750000Y-99250000D03*
%TO.P,U2,5*%
X59250000Y-99250000D03*
%TO.P,U2,6,AUX_SDA*%
%TO.N,unconnected-(U2-Pad6)*%
X58750000Y-99250000D03*
D20*
%TO.P,U2,7,AUX_SCL*%
%TO.N,unconnected-(U2-Pad7)*%
X58050000Y-99950000D03*
%TO.P,U2,8,~{CS}*%
%TO.N,unconnected-(U2-Pad8)*%
X58050000Y-100450000D03*
%TO.P,U2,9,AD0/MISO*%
%TO.N,SPI1_MISO*%
X58050000Y-100950000D03*
%TO.P,U2,10,REGOUT*%
%TO.N,Net-(C19-Pad1)*%
X58050000Y-101450000D03*
%TO.P,U2,11,FSYNC*%
%TO.N,GND*%
X58050000Y-101950000D03*
%TO.P,U2,12,INT*%
%TO.N,GYRO_INT*%
X58050000Y-102450000D03*
D19*
%TO.P,U2,13,VDD*%
%TO.N,+3.3V*%
X58750000Y-103150000D03*
%TO.P,U2,14*%
%TO.N,N/C*%
X59250000Y-103150000D03*
%TO.P,U2,15*%
X59750000Y-103150000D03*
%TO.P,U2,16*%
X60250000Y-103150000D03*
%TO.P,U2,17*%
X60750000Y-103150000D03*
%TO.P,U2,18,GND*%
%TO.N,GND*%
X61250000Y-103150000D03*
D20*
%TO.P,U2,19*%
%TO.N,N/C*%
X61950000Y-102450000D03*
%TO.P,U2,20,CPOUT*%
%TO.N,Net-(C18-Pad1)*%
X61950000Y-101950000D03*
%TO.P,U2,21*%
%TO.N,N/C*%
X61950000Y-101450000D03*
%TO.P,U2,22*%
X61950000Y-100950000D03*
%TO.P,U2,23,SCL/SCLK*%
%TO.N,SPI1_SCLK*%
X61950000Y-100450000D03*
%TO.P,U2,24,SDA/MOSI*%
%TO.N,SPI1_MOSI*%
X61950000Y-99950000D03*
%TD*%
D21*
%TO.P,Y1,1,1*%
%TO.N,/RCC_OSC_IN*%
X44750000Y-85900000D03*
%TO.P,Y1,2,2*%
%TO.N,GND*%
X44750000Y-88100000D03*
%TO.P,Y1,3,3*%
%TO.N,/RCC_OSC_OUT*%
X46450000Y-88100000D03*
%TO.P,Y1,4,4*%
%TO.N,GND*%
X46450000Y-85900000D03*
%TD*%
D22*
%TO.P,J7,1,Pin_1*%
%TO.N,/S2*%
X43400000Y-98200000D03*
%TD*%
D23*
%TO.P,D2,1,K*%
%TO.N,Net-(D2-Pad1)*%
X76600000Y-76387500D03*
%TO.P,D2,2,A*%
%TO.N,+3.3V*%
X76600000Y-74812500D03*
%TD*%
D24*
%TO.P,R1,1*%
%TO.N,Net-(D2-Pad1)*%
X76110000Y-78200000D03*
%TO.P,R1,2*%
%TO.N,GND*%
X75090000Y-78200000D03*
%TD*%
D14*
%TO.P,J13,1,Pin_1*%
%TO.N,/UART3_TX*%
X66600000Y-101800000D03*
%TD*%
D25*
%TO.P,FB1,1*%
%TO.N,+3.3VA*%
X49012500Y-97000000D03*
%TO.P,FB1,2*%
%TO.N,+3.3V*%
X50587500Y-97000000D03*
%TD*%
D14*
%TO.P,J8,1,Pin_1*%
%TO.N,/UART6_TX*%
X70600000Y-101800000D03*
%TD*%
%TO.P,J12,1,Pin_1*%
%TO.N,/PPM_IN*%
X74600000Y-101800000D03*
%TD*%
D26*
%TO.P,D1,1*%
%TO.N,VDD*%
X67650000Y-85737500D03*
%TO.P,D1,2*%
%TO.N,VBUS*%
X69550000Y-85737500D03*
%TO.P,D1,3*%
%TO.N,+5V*%
X68600000Y-83862500D03*
%TD*%
D16*
%TO.P,R3,1*%
%TO.N,/USB_OTG_FS_DP*%
X77400000Y-87800000D03*
%TO.P,R3,2*%
%TO.N,Net-(J1-Pad3)*%
X78420000Y-87800000D03*
%TD*%
%TO.P,R2,1*%
%TO.N,/SW_BOOT0*%
X46890000Y-75800000D03*
%TO.P,R2,2*%
%TO.N,/BOOT0*%
X47910000Y-75800000D03*
%TD*%
D27*
%TO.P,C6,1*%
%TO.N,+3.3V*%
X54280000Y-97400000D03*
%TO.P,C6,2*%
%TO.N,GND*%
X53320000Y-97400000D03*
%TD*%
D28*
%TO.P,C15,1*%
%TO.N,/RCC_OSC_IN*%
X48400000Y-86680000D03*
%TO.P,C15,2*%
%TO.N,GND*%
X48400000Y-85720000D03*
%TD*%
D14*
%TO.P,J14,1,Pin_1*%
%TO.N,/UART3_RX*%
X68600000Y-101800000D03*
%TD*%
D27*
%TO.P,C17,1*%
%TO.N,+3.3V*%
X54280000Y-101000000D03*
%TO.P,C17,2*%
%TO.N,GND*%
X53320000Y-101000000D03*
%TD*%
D22*
%TO.P,J6,1,Pin_1*%
%TO.N,/S3*%
X43400000Y-96000000D03*
%TD*%
D12*
%TO.P,C13,1*%
%TO.N,Net-(C13-Pad1)*%
X61920000Y-95800000D03*
%TO.P,C13,2*%
%TO.N,GND*%
X62880000Y-95800000D03*
%TD*%
D22*
%TO.P,J2,1,Pin_1*%
%TO.N,/S1*%
X43400000Y-91800000D03*
%TD*%
D14*
%TO.P,J10,1,Pin_1*%
%TO.N,/UART6_RX*%
X72600000Y-101800000D03*
%TD*%
D22*
%TO.P,J3,1,Pin_1*%
%TO.N,/S4*%
X43400000Y-93800000D03*
%TD*%
D27*
%TO.P,C7,1*%
%TO.N,+3.3V*%
X54280000Y-98600000D03*
%TO.P,C7,2*%
%TO.N,GND*%
X53320000Y-98600000D03*
%TD*%
%TO.P,C4,1*%
%TO.N,+3.3V*%
X54280000Y-99800000D03*
%TO.P,C4,2*%
%TO.N,GND*%
X53320000Y-99800000D03*
%TD*%
D14*
%TO.P,J9,1,Pin_1*%
%TO.N,Net-(J9-Pad1)*%
X59000000Y-76600000D03*
%TD*%
D29*
%TO.P,C18,1*%
%TO.N,Net-(C18-Pad1)*%
X63400000Y-101920000D03*
%TO.P,C18,2*%
%TO.N,GND*%
X63400000Y-102880000D03*
%TD*%
D30*
%TO.P,R5,1*%
%TO.N,/SCL_PAD*%
X59000000Y-80110000D03*
%TO.P,R5,2*%
%TO.N,Net-(J9-Pad1)*%
X59000000Y-79090000D03*
%TD*%
%TO.P,R6,1*%
%TO.N,/SDA_PAD*%
X57200000Y-80020000D03*
%TO.P,R6,2*%
%TO.N,Net-(J11-Pad1)*%
X57200000Y-79000000D03*
%TD*%
D28*
%TO.P,C10,1*%
%TO.N,+3.3VA*%
X48000000Y-92960000D03*
%TO.P,C10,2*%
%TO.N,GND*%
X48000000Y-92000000D03*
%TD*%
D31*
%TO.P,SW1,1,A*%
%TO.N,GND*%
X46800000Y-83350000D03*
%TO.P,SW1,2,B*%
%TO.N,/SW_BOOT0*%
X46800000Y-77450000D03*
D32*
%TO.P,SW1,3,C*%
%TO.N,+3.3V*%
X47800000Y-78250000D03*
X45800000Y-82550000D03*
X45800000Y-78250000D03*
X47800000Y-82550000D03*
%TD*%
D24*
%TO.P,R8,1*%
%TO.N,Net-(J5-Pad1)*%
X76510000Y-91400000D03*
%TO.P,R8,2*%
%TO.N,Net-(Q1-Pad1)*%
X75490000Y-91400000D03*
%TD*%
D33*
%TO.P,Q1,1,B*%
%TO.N,Net-(Q1-Pad1)*%
X74000000Y-91250000D03*
%TO.P,Q1,2,E*%
%TO.N,GND*%
X74000000Y-89950000D03*
%TO.P,Q1,3,C*%
%TO.N,UART1_RX_OUT*%
X72000000Y-90600000D03*
%TD*%
D27*
%TO.P,C12,1*%
%TO.N,/NRST*%
X51880000Y-84200000D03*
%TO.P,C12,2*%
%TO.N,GND*%
X50920000Y-84200000D03*
%TD*%
D34*
%TO.P,U1,1,GND*%
%TO.N,GND*%
X66900000Y-81150000D03*
%TO.P,U1,2,VO*%
%TO.N,+3.3V*%
X69200000Y-81150000D03*
D35*
X69200000Y-74850000D03*
D34*
%TO.P,U1,3,VI*%
%TO.N,+5V*%
X71500000Y-81150000D03*
%TD*%
D12*
%TO.P,C5,1*%
%TO.N,+3.3V*%
X52720000Y-81400000D03*
%TO.P,C5,2*%
%TO.N,GND*%
X53680000Y-81400000D03*
%TD*%
D28*
%TO.P,C9,1*%
%TO.N,+3.3VA*%
X49200000Y-92960000D03*
%TO.P,C9,2*%
%TO.N,GND*%
X49200000Y-92000000D03*
%TD*%
D29*
%TO.P,C19,1*%
%TO.N,Net-(C19-Pad1)*%
X56800000Y-101520000D03*
%TO.P,C19,2*%
%TO.N,GND*%
X56800000Y-102480000D03*
%TD*%
D28*
%TO.P,C16,1*%
%TO.N,/RCC_OSC_OUT*%
X48000000Y-88680000D03*
%TO.P,C16,2*%
%TO.N,GND*%
X48000000Y-87720000D03*
%TD*%
D12*
%TO.P,C8,1*%
%TO.N,+3.3V*%
X52720000Y-82600000D03*
%TO.P,C8,2*%
%TO.N,GND*%
X53680000Y-82600000D03*
%TD*%
D36*
%TO.P,R7,1*%
%TO.N,UART1_RX_OUT*%
X70200000Y-90690000D03*
%TO.P,R7,2*%
%TO.N,+5V*%
X70200000Y-91710000D03*
%TD*%
D37*
%TO.P,J1,1,VBUS*%
%TO.N,VBUS*%
X81145000Y-89500000D03*
%TO.P,J1,2,D-*%
%TO.N,Net-(J1-Pad2)*%
X81145000Y-88850000D03*
%TO.P,J1,3,D+*%
%TO.N,Net-(J1-Pad3)*%
X81145000Y-88200000D03*
%TO.P,J1,4,ID*%
%TO.N,unconnected-(J1-Pad4)*%
X81145000Y-87550000D03*
%TO.P,J1,5,GND*%
%TO.N,GND*%
X81145000Y-86900000D03*
D38*
%TO.P,J1,6,Shield*%
%TO.N,unconnected-(J1-Pad6)*%
X81195000Y-84475000D03*
X81195000Y-91925000D03*
D39*
X84995000Y-92075000D03*
X84995000Y-84325000D03*
%TD*%
D12*
%TO.P,C11,1*%
%TO.N,+3.3V*%
X50920000Y-98600000D03*
%TO.P,C11,2*%
%TO.N,GND*%
X51880000Y-98600000D03*
%TD*%
D11*
%TO.P,J4,1,Pin_1*%
%TO.N,/UART1_TX*%
X76600000Y-101800000D03*
%TD*%
D40*
%TO.N,GYRO_INT*%
X56858380Y-97089851D03*
X56070023Y-100329977D03*
%TO.N,+3.3V*%
X54458380Y-103910149D03*
X58800000Y-104400000D03*
X60400000Y-94000000D03*
%TO.N,GND*%
X58200000Y-98000000D03*
%TO.N,+3.3V*%
X58200000Y-93600000D03*
%TO.N,GND*%
X47200000Y-95400000D03*
X56800000Y-103400000D03*
X43200000Y-88200000D03*
%TO.N,+3.3V*%
X53329977Y-85870023D03*
X51000000Y-85400000D03*
%TO.N,GND*%
X53600000Y-77800000D03*
X81200000Y-81200000D03*
%TO.N,VDD*%
X76000000Y-85000000D03*
X74200000Y-87000000D03*
%TO.N,GND*%
X52200000Y-101000000D03*
%TO.N,+5V*%
X68400000Y-91800000D03*
X66200000Y-86800000D03*
%TO.N,GND*%
X65800000Y-85400000D03*
X49400000Y-82400000D03*
X49077715Y-88000500D03*
X63600000Y-96600000D03*
X63400000Y-104000000D03*
X75200000Y-90000000D03*
X78200000Y-86400000D03*
X64800000Y-81200000D03*
X74600000Y-84200000D03*
X73600000Y-78200000D03*
%TD*%
D41*
%TO.N,GND*%
X64850000Y-81150000D02*
X66900000Y-81150000D01*
X64800000Y-81200000D02*
X64850000Y-81150000D01*
D42*
%TO.N,/S4*%
X45950000Y-90250000D02*
X51125000Y-90250000D01*
D41*
%TO.N,+5V*%
X66200000Y-86800000D02*
X66650000Y-86350000D01*
X66650000Y-86350000D02*
X66650000Y-84250000D01*
X66650000Y-84250000D02*
X66600000Y-84200000D01*
X66600000Y-84200000D02*
X66937500Y-83862500D01*
X66937500Y-83862500D02*
X68600000Y-83862500D01*
%TO.N,GND*%
X56800000Y-102480000D02*
X56800000Y-103400000D01*
D42*
%TO.N,Net-(C19-Pad1)*%
X56800000Y-101520000D02*
X56870000Y-101450000D01*
X56870000Y-101450000D02*
X58050000Y-101450000D01*
%TO.N,GND*%
X56993959Y-102480000D02*
X57523959Y-101950000D01*
X57523959Y-101950000D02*
X58050000Y-101950000D01*
%TO.N,GYRO_INT*%
X56858380Y-97089851D02*
X56550000Y-96781471D01*
X56550000Y-96781471D02*
X56550000Y-95675000D01*
%TO.N,SPI1_MOSI*%
X61950000Y-99950000D02*
X61800000Y-99800000D01*
X61800000Y-99800000D02*
X61800000Y-98400000D01*
X61800000Y-98400000D02*
X61375000Y-97975000D01*
X61375000Y-97975000D02*
X59235661Y-97975000D01*
X57450000Y-97550000D02*
X57450000Y-98000000D01*
X56050000Y-98050000D02*
X56050000Y-95675000D01*
X59235661Y-97975000D02*
X58510661Y-97250000D01*
X58510661Y-97250000D02*
X57750000Y-97250000D01*
X57750000Y-97250000D02*
X57450000Y-97550000D01*
X57450000Y-98000000D02*
X57250000Y-98200000D01*
X57250000Y-98200000D02*
X56200000Y-98200000D01*
X56200000Y-98200000D02*
X56050000Y-98050000D01*
%TO.N,GYRO_INT*%
X55600000Y-100200000D02*
X55940046Y-100200000D01*
X55940046Y-100200000D02*
X56070023Y-100329977D01*
%TO.N,SPI1_MISO*%
X57200000Y-100400000D02*
X55550000Y-98750000D01*
X55550000Y-98750000D02*
X55550000Y-95675000D01*
%TO.N,GYRO_INT*%
X55600000Y-103260661D02*
X55600000Y-100200000D01*
X56939339Y-104600000D02*
X55600000Y-103260661D01*
X58000000Y-104600000D02*
X56939339Y-104600000D01*
X58000000Y-102800000D02*
X58000000Y-104600000D01*
X58050000Y-102750000D02*
X58000000Y-102800000D01*
X58050000Y-102450000D02*
X58050000Y-102750000D01*
%TO.N,SPI1_SCLK*%
X55050000Y-95675000D02*
X55050000Y-103450000D01*
X64400000Y-100600000D02*
X64200000Y-100400000D01*
X55050000Y-103450000D02*
X56800000Y-105200000D01*
X56800000Y-105200000D02*
X63260661Y-105200000D01*
X63260661Y-105200000D02*
X64400000Y-104060661D01*
X64400000Y-104060661D02*
X64400000Y-100600000D01*
X64200000Y-100400000D02*
X62526041Y-100400000D01*
X62476041Y-100450000D02*
X61950000Y-100450000D01*
X62526041Y-100400000D02*
X62476041Y-100450000D01*
%TO.N,+3.3V*%
X58750000Y-103650000D02*
X58800000Y-103700000D01*
X58800000Y-103700000D02*
X58800000Y-104400000D01*
%TO.N,SPI1_MISO*%
X57200000Y-100717035D02*
X57200000Y-100400000D01*
X57432965Y-100950000D02*
X57200000Y-100717035D01*
%TO.N,+3.3V*%
X54458380Y-103910149D02*
X53800000Y-103251769D01*
X53800000Y-103251769D02*
X53800000Y-102400000D01*
X58750000Y-103150000D02*
X58750000Y-103650000D01*
%TO.N,Net-(C13-Pad1)*%
X61920000Y-95800000D02*
X61920000Y-95120000D01*
X61920000Y-95120000D02*
X61150000Y-94350000D01*
X61150000Y-94350000D02*
X61150000Y-93689339D01*
X61150000Y-93689339D02*
X60710661Y-93250000D01*
X60050000Y-94710661D02*
X60050000Y-95675000D01*
X60710661Y-93250000D02*
X60089339Y-93250000D01*
X60089339Y-93250000D02*
X59600000Y-93739339D01*
X59600000Y-93739339D02*
X59600000Y-94260661D01*
X59600000Y-94260661D02*
X60050000Y-94710661D01*
%TO.N,+3.3V*%
X60550000Y-94150000D02*
X60400000Y-94000000D01*
X60550000Y-95675000D02*
X60550000Y-94150000D01*
%TO.N,/UART3_RX*%
X68600000Y-101800000D02*
X68600000Y-100400000D01*
X68600000Y-100400000D02*
X66000000Y-97800000D01*
X59973959Y-96975000D02*
X59550000Y-96551041D01*
X66000000Y-97800000D02*
X63200000Y-97800000D01*
X63200000Y-97800000D02*
X62375000Y-96975000D01*
X62375000Y-96975000D02*
X59973959Y-96975000D01*
X59550000Y-96551041D02*
X59550000Y-95675000D01*
%TO.N,/UART3_TX*%
X66600000Y-101800000D02*
X63600000Y-98800000D01*
X59050000Y-95675000D02*
X59050000Y-97050000D01*
X59050000Y-97050000D02*
X59475000Y-97475000D01*
X59475000Y-97475000D02*
X61675000Y-97475000D01*
X61675000Y-97475000D02*
X63000000Y-98800000D01*
X63000000Y-98800000D02*
X63600000Y-98800000D01*
%TO.N,GND*%
X61001041Y-98475000D02*
X58675000Y-98475000D01*
X58675000Y-98475000D02*
X58200000Y-98000000D01*
X61176041Y-98650000D02*
X61001041Y-98475000D01*
X61250000Y-98650000D02*
X61176041Y-98650000D01*
D41*
X62880000Y-95800000D02*
X62880000Y-95880000D01*
X62880000Y-95880000D02*
X63600000Y-96600000D01*
D42*
X61250000Y-99250000D02*
X61250000Y-98650000D01*
D41*
%TO.N,+3.3V*%
X54000000Y-86540046D02*
X54000000Y-93400000D01*
X54000000Y-93400000D02*
X54000000Y-94000000D01*
D42*
X58200000Y-93600000D02*
X54200000Y-93600000D01*
X54200000Y-93600000D02*
X54000000Y-93400000D01*
D41*
%TO.N,GND*%
X47000000Y-95200000D02*
X47200000Y-95400000D01*
X47000000Y-92800000D02*
X47000000Y-95200000D01*
X48000000Y-92000000D02*
X47800000Y-92000000D01*
X47800000Y-92000000D02*
X47000000Y-92800000D01*
D42*
X61250000Y-103950000D02*
X61200000Y-104000000D01*
X61250000Y-103150000D02*
X61250000Y-103950000D01*
X61200000Y-104000000D02*
X63400000Y-104000000D01*
D41*
%TO.N,+3.3V*%
X54280000Y-101000000D02*
X54200000Y-101080000D01*
X54200000Y-101080000D02*
X54200000Y-102000000D01*
X54200000Y-102000000D02*
X53800000Y-102400000D01*
X53800000Y-102400000D02*
X52200000Y-102400000D01*
X50920000Y-101120000D02*
X50920000Y-98600000D01*
X52200000Y-102400000D02*
X50920000Y-101120000D01*
%TO.N,GND*%
X52200000Y-101000000D02*
X53320000Y-101000000D01*
D42*
%TO.N,+3.3V*%
X54000000Y-94000000D02*
X54050000Y-94050000D01*
X54050000Y-94050000D02*
X54050000Y-95675000D01*
D41*
X53329977Y-85870023D02*
X54000000Y-86540046D01*
X53329977Y-85870023D02*
X53609954Y-86150000D01*
X53609954Y-86150000D02*
X62475000Y-86150000D01*
%TO.N,GND*%
X43300000Y-88100000D02*
X43200000Y-88200000D01*
X44750000Y-88100000D02*
X43300000Y-88100000D01*
%TO.N,+3.3V*%
X47800000Y-78250000D02*
X47800000Y-78800000D01*
X47800000Y-78800000D02*
X47800000Y-81200000D01*
X45800000Y-78250000D02*
X46350000Y-78800000D01*
X46350000Y-78800000D02*
X47800000Y-78800000D01*
X47800000Y-81200000D02*
X47800000Y-82550000D01*
X47800000Y-81200000D02*
X47150000Y-81200000D01*
X47150000Y-81200000D02*
X45800000Y-82550000D01*
D42*
X53329977Y-85870023D02*
X53050000Y-85590046D01*
X53050000Y-85590046D02*
X53050000Y-84325000D01*
X51125000Y-85525000D02*
X51000000Y-85400000D01*
X51125000Y-86250000D02*
X51125000Y-85525000D01*
D41*
%TO.N,GND*%
X53950000Y-78150000D02*
X53600000Y-77800000D01*
X53950000Y-79600000D02*
X53950000Y-78150000D01*
D42*
%TO.N,/USB_OTG_FS_DP*%
X62475000Y-87750000D02*
X77350000Y-87750000D01*
X77350000Y-87750000D02*
X77400000Y-87800000D01*
%TO.N,/USB_OTG_FS_DM*%
X65200000Y-89000000D02*
X77290000Y-89000000D01*
X77290000Y-89000000D02*
X77490000Y-89200000D01*
D41*
%TO.N,VBUS*%
X69550000Y-85737500D02*
X69662500Y-85850000D01*
X80000000Y-83000000D02*
X82200000Y-83000000D01*
X69662500Y-85850000D02*
X77150000Y-85850000D01*
X77150000Y-85850000D02*
X80000000Y-83000000D01*
X82200000Y-83000000D02*
X83200000Y-84000000D01*
X83200000Y-88570000D02*
X82245000Y-89525000D01*
X83200000Y-84000000D02*
X83200000Y-88570000D01*
X82245000Y-89525000D02*
X81145000Y-89525000D01*
D42*
%TO.N,Net-(J1-Pad2)*%
X78510000Y-89200000D02*
X80000000Y-89200000D01*
X80000000Y-89200000D02*
X80350000Y-88850000D01*
X80350000Y-88850000D02*
X81145000Y-88850000D01*
%TO.N,Net-(J1-Pad3)*%
X79800000Y-87800000D02*
X80200000Y-88200000D01*
X78420000Y-87800000D02*
X79800000Y-87800000D01*
X80200000Y-88200000D02*
X81145000Y-88200000D01*
D41*
%TO.N,GND*%
X79515539Y-86700688D02*
X79689851Y-86875000D01*
X79689851Y-86875000D02*
X81145000Y-86875000D01*
X78200000Y-86400000D02*
X78500688Y-86700688D01*
X78500688Y-86700688D02*
X79515539Y-86700688D01*
X79600000Y-81200000D02*
X81200000Y-81200000D01*
%TO.N,VDD*%
X77000000Y-84000000D02*
X77000000Y-80000000D01*
X77000000Y-80000000D02*
X77800000Y-79200000D01*
X77800000Y-79200000D02*
X79600000Y-79200000D01*
X76000000Y-85000000D02*
X77000000Y-84000000D01*
X68912500Y-87000000D02*
X74200000Y-87000000D01*
X67650000Y-85737500D02*
X68912500Y-87000000D01*
%TO.N,+5V*%
X68400000Y-91800000D02*
X70110000Y-91800000D01*
X70110000Y-91800000D02*
X70200000Y-91710000D01*
%TO.N,GND*%
X65080000Y-86120000D02*
X65800000Y-85400000D01*
X65080000Y-86800000D02*
X65080000Y-86120000D01*
%TO.N,+5V*%
X68600000Y-83862500D02*
X71112500Y-83862500D01*
X71112500Y-83862500D02*
X71450000Y-84200000D01*
%TO.N,VBUS*%
X69550000Y-85737500D02*
X69550000Y-85950000D01*
%TO.N,GND*%
X49920000Y-82920000D02*
X49400000Y-82400000D01*
X49920000Y-84200000D02*
X49920000Y-82920000D01*
X48400000Y-85720000D02*
X49920000Y-84200000D01*
X49920000Y-84200000D02*
X50920000Y-84200000D01*
X46800000Y-83350000D02*
X46800000Y-84400000D01*
X46800000Y-84400000D02*
X46800000Y-85550000D01*
X46450000Y-85900000D02*
X46750000Y-85600000D01*
X46750000Y-85600000D02*
X48280000Y-85600000D01*
X48280000Y-85600000D02*
X48400000Y-85720000D01*
X46800000Y-85550000D02*
X46450000Y-85900000D01*
D42*
%TO.N,+3.3V*%
X69200000Y-74850000D02*
X66550000Y-74850000D01*
X66550000Y-74850000D02*
X64000000Y-77400000D01*
X64000000Y-77400000D02*
X64000000Y-85800000D01*
X64000000Y-85800000D02*
X63550000Y-86250000D01*
X63550000Y-86250000D02*
X62475000Y-86250000D01*
D41*
%TO.N,+5V*%
X71450000Y-84200000D02*
X71450000Y-81200000D01*
X71450000Y-81200000D02*
X71500000Y-81150000D01*
%TO.N,GND*%
X48797215Y-87720000D02*
X49077715Y-88000500D01*
X48400000Y-87720000D02*
X48797215Y-87720000D01*
%TO.N,+3.3V*%
X47800000Y-78250000D02*
X50700000Y-78250000D01*
X50700000Y-78250000D02*
X52050000Y-79600000D01*
D42*
%TO.N,GND*%
X63400000Y-104000000D02*
X62850000Y-103450000D01*
X62850000Y-103450000D02*
X62850000Y-103150000D01*
X61250000Y-103150000D02*
X62850000Y-103150000D01*
X62850000Y-103150000D02*
X63130000Y-103150000D01*
X63130000Y-103150000D02*
X63400000Y-102880000D01*
%TO.N,Net-(C18-Pad1)*%
X61950000Y-101950000D02*
X63370000Y-101950000D01*
X63370000Y-101950000D02*
X63400000Y-101920000D01*
%TO.N,SPI1_MISO*%
X58050000Y-100950000D02*
X57432965Y-100950000D01*
%TO.N,/UART6_RX*%
X62475000Y-91250000D02*
X63558147Y-91250000D01*
X63558147Y-91250000D02*
X64600000Y-92291853D01*
X64600000Y-92291853D02*
X64600000Y-92600000D01*
X64600000Y-92600000D02*
X72600000Y-100600000D01*
X72600000Y-100600000D02*
X72600000Y-101800000D01*
%TO.N,/UART6_TX*%
X62475000Y-91750000D02*
X63351041Y-91750000D01*
X63351041Y-91750000D02*
X63800000Y-92198959D01*
X63800000Y-92198959D02*
X63800000Y-93200000D01*
X70600000Y-100000000D02*
X63800000Y-93200000D01*
X70600000Y-101800000D02*
X70600000Y-100000000D01*
%TO.N,/PPM_IN*%
X74600000Y-101800000D02*
X74600000Y-101498959D01*
X74600000Y-101498959D02*
X63351041Y-90250000D01*
X63351041Y-90250000D02*
X62475000Y-90250000D01*
%TO.N,Net-(Q1-Pad1)*%
X74000000Y-91250000D02*
X75340000Y-91250000D01*
X75340000Y-91250000D02*
X75490000Y-91400000D01*
D41*
%TO.N,GND*%
X75150000Y-89950000D02*
X75200000Y-90000000D01*
X74000000Y-89950000D02*
X75150000Y-89950000D01*
D42*
%TO.N,UART1_RX_OUT*%
X70200000Y-90690000D02*
X66890000Y-90690000D01*
X66890000Y-90690000D02*
X65800000Y-89600000D01*
X65800000Y-89600000D02*
X64800000Y-89600000D01*
X64800000Y-89600000D02*
X63950000Y-88750000D01*
X63950000Y-88750000D02*
X62475000Y-88750000D01*
X72000000Y-90600000D02*
X70290000Y-90600000D01*
X70290000Y-90600000D02*
X70200000Y-90690000D01*
%TO.N,/UART1_TX*%
X76600000Y-101800000D02*
X65000000Y-90200000D01*
X65000000Y-90200000D02*
X64301041Y-90200000D01*
X64301041Y-90200000D02*
X63351041Y-89250000D01*
X63351041Y-89250000D02*
X62475000Y-89250000D01*
%TO.N,Net-(J5-Pad1)*%
X78600000Y-101800000D02*
X78600000Y-93600000D01*
X78600000Y-93600000D02*
X76510000Y-91510000D01*
X76510000Y-91510000D02*
X76510000Y-91400000D01*
%TO.N,Net-(C14-Pad1)*%
X64120000Y-86800000D02*
X64070000Y-86750000D01*
X64070000Y-86750000D02*
X62475000Y-86750000D01*
D41*
%TO.N,GND*%
X73350000Y-84200000D02*
X74600000Y-84200000D01*
X75090000Y-78200000D02*
X73600000Y-78200000D01*
X73600000Y-78200000D02*
X74400000Y-77400000D01*
X74400000Y-77400000D02*
X74400000Y-76750000D01*
%TO.N,+3.3V*%
X69200000Y-74850000D02*
X69200000Y-81150000D01*
%TO.N,Net-(D2-Pad1)*%
X76600000Y-76387500D02*
X76600000Y-77710000D01*
X76600000Y-77710000D02*
X76110000Y-78200000D01*
%TO.N,+3.3V*%
X74400000Y-74850000D02*
X76562500Y-74850000D01*
X76562500Y-74850000D02*
X76600000Y-74812500D01*
X69200000Y-74850000D02*
X74400000Y-74850000D01*
D42*
%TO.N,/SCL_PAD*%
X59000000Y-80110000D02*
X59000000Y-80498959D01*
X59000000Y-80498959D02*
X56050000Y-83448959D01*
X56050000Y-83448959D02*
X56050000Y-84325000D01*
%TO.N,/SDA_PAD*%
X57180000Y-80020000D02*
X55550000Y-81650000D01*
X55550000Y-81650000D02*
X55550000Y-84325000D01*
%TO.N,Net-(J9-Pad1)*%
X59000000Y-76600000D02*
X59000000Y-79090000D01*
%TO.N,Net-(J11-Pad1)*%
X57200000Y-76600000D02*
X57200000Y-79000000D01*
%TO.N,/BOOT0*%
X47910000Y-75800000D02*
X53400000Y-75800000D01*
X53400000Y-75800000D02*
X55050000Y-77450000D01*
X55050000Y-77450000D02*
X55050000Y-84325000D01*
%TO.N,/SW_BOOT0*%
X46800000Y-77450000D02*
X46800000Y-75890000D01*
X46800000Y-75890000D02*
X46890000Y-75800000D01*
%TO.N,/NRST*%
X51880000Y-84200000D02*
X51880000Y-85480000D01*
X52350000Y-89250000D02*
X51125000Y-89250000D01*
X51880000Y-85480000D02*
X53000000Y-86600000D01*
X53000000Y-86600000D02*
X53000000Y-88600000D01*
X53000000Y-88600000D02*
X52350000Y-89250000D01*
%TO.N,/RCC_OSC_OUT*%
X51125000Y-88750000D02*
X48470000Y-88750000D01*
X48400000Y-88680000D02*
X47030000Y-88680000D01*
%TO.N,/RCC_OSC_IN*%
X49800000Y-87200000D02*
X49280000Y-86680000D01*
X49280000Y-86680000D02*
X48400000Y-86680000D01*
%TO.N,/S2*%
X43400000Y-98200000D02*
X46200000Y-95400000D01*
X46200000Y-95400000D02*
X46200000Y-92507106D01*
X46200000Y-92507106D02*
X47457106Y-91250000D01*
X47457106Y-91250000D02*
X51125000Y-91250000D01*
%TO.N,/S3*%
X46400000Y-91600000D02*
X46400000Y-90800000D01*
X45200000Y-95200000D02*
X45200000Y-92800000D01*
X46450000Y-90750000D02*
X51125000Y-90750000D01*
X44400000Y-96000000D02*
X45200000Y-95200000D01*
X45200000Y-92800000D02*
X46400000Y-91600000D01*
X46400000Y-90800000D02*
X46450000Y-90750000D01*
%TO.N,/S4*%
X45800000Y-91400000D02*
X45800000Y-90400000D01*
X45800000Y-90400000D02*
X45950000Y-90250000D01*
X43400000Y-93800000D02*
X45800000Y-91400000D01*
%TO.N,/S1*%
X43400000Y-91800000D02*
X45450000Y-89750000D01*
X45450000Y-89750000D02*
X51125000Y-89750000D01*
%TO.N,GND*%
X53550000Y-96550361D02*
X53400000Y-96700361D01*
D43*
X49200000Y-92000000D02*
X49450000Y-91750000D01*
D41*
X51880000Y-98600000D02*
X53320000Y-98600000D01*
D43*
X49450000Y-91750000D02*
X51125000Y-91750000D01*
D41*
X53320000Y-101000000D02*
X53320000Y-99800000D01*
D42*
X53799639Y-83200000D02*
X53800000Y-83200000D01*
D41*
X53950000Y-79600000D02*
X53950000Y-81130000D01*
D42*
X53400000Y-97320000D02*
X53320000Y-97400000D01*
D41*
X53320000Y-98600000D02*
X53320000Y-97400000D01*
X53320000Y-99800000D02*
X53320000Y-98600000D01*
X48000000Y-92000000D02*
X49200000Y-92000000D01*
D42*
X53550000Y-95675000D02*
X53550000Y-96550361D01*
X53550000Y-83449639D02*
X53799639Y-83200000D01*
D41*
X53680000Y-81400000D02*
X53680000Y-82600000D01*
X53950000Y-81130000D02*
X53680000Y-81400000D01*
D42*
X53550000Y-84325000D02*
X53550000Y-83449639D01*
X53800000Y-82720000D02*
X53680000Y-82600000D01*
X53400000Y-96700361D02*
X53400000Y-97320000D01*
X53800000Y-83200000D02*
X53800000Y-82720000D01*
%TO.N,+3.3V*%
X54050000Y-96550361D02*
X54280000Y-96780361D01*
X52720000Y-83120000D02*
X53050000Y-83450000D01*
D41*
X54280000Y-98600000D02*
X54280000Y-97400000D01*
X54280000Y-101000000D02*
X54280000Y-99800000D01*
X52720000Y-81400000D02*
X52720000Y-82600000D01*
X52050000Y-79600000D02*
X52050000Y-80730000D01*
D42*
X52720000Y-82600000D02*
X52720000Y-83120000D01*
X53050000Y-83450000D02*
X53050000Y-84325000D01*
D41*
X54280000Y-99800000D02*
X54280000Y-98600000D01*
D42*
X54050000Y-95675000D02*
X54050000Y-96550361D01*
X54280000Y-96780361D02*
X54280000Y-97400000D01*
D41*
X50920000Y-97332500D02*
X50587500Y-97000000D01*
X50920000Y-98600000D02*
X50920000Y-97332500D01*
X52050000Y-80730000D02*
X52720000Y-81400000D01*
D43*
%TO.N,+3.3VA*%
X50230000Y-92250000D02*
X51125000Y-92250000D01*
X49200000Y-92840000D02*
X49640000Y-92840000D01*
D41*
X49200000Y-92960000D02*
X48000000Y-92960000D01*
X49012500Y-95812500D02*
X48000000Y-94800000D01*
X48000000Y-94800000D02*
X48000000Y-92960000D01*
X49012500Y-97000000D02*
X49012500Y-95812500D01*
D43*
X49640000Y-92840000D02*
X50230000Y-92250000D01*
D42*
%TO.N,/RCC_OSC_IN*%
X49800000Y-87800361D02*
X49800000Y-87200000D01*
X44750000Y-86000000D02*
X44750000Y-85900000D01*
X45699511Y-86949511D02*
X44750000Y-86000000D01*
X51125000Y-88250000D02*
X50249639Y-88250000D01*
X47680000Y-86680000D02*
X47410489Y-86949511D01*
X50249639Y-88250000D02*
X49800000Y-87800361D01*
X47410489Y-86949511D02*
X45699511Y-86949511D01*
X47680000Y-86680000D02*
X48400000Y-86680000D01*
%TO.N,/RCC_OSC_OUT*%
X47030000Y-88680000D02*
X46450000Y-88100000D01*
X48470000Y-88750000D02*
X48400000Y-88680000D01*
%TO.N,Net-(J1-Pad2)*%
X80800000Y-88800000D02*
X81490000Y-88800000D01*
%TO.N,/USB_OTG_FS_DM*%
X62475000Y-88250000D02*
X64450000Y-88250000D01*
X64450000Y-88250000D02*
X65200000Y-89000000D01*
%TD*%
M02*
