M48
; DRILL file {KiCad 6.0.6-3a73a75311~116~ubuntu20.04.1} date Thu 21 Jul 2022 01:32:04 PM PDT
; FORMAT={-:-/ absolute / metric / decimal}
; #@! TF.CreationDate,2022-07-21T13:32:04-07:00
; #@! TF.GenerationSoftware,Kicad,Pcbnew,6.0.6-3a73a75311~116~ubuntu20.04.1
; #@! TF.FileFunction,MixedPlating,1,2
FMAT,2
METRIC
; #@! TA.AperFunction,Plated,PTH,ViaDrill
T1C0.400
; #@! TA.AperFunction,Plated,PTH,ComponentDrill
T2C0.550
; #@! TA.AperFunction,Plated,PTH,ComponentDrill
T3C0.850
; #@! TA.AperFunction,NonPlated,NPTH,ComponentDrill
T4C0.800
; #@! TA.AperFunction,NonPlated,NPTH,ComponentDrill
T5C2.200
%
G90
G05
T1
X43.2Y-88.2
X47.2Y-95.4
X49.078Y-88.001
X49.4Y-82.4
X51.0Y-85.4
X52.2Y-101.0
X53.33Y-85.87
X53.6Y-77.8
X54.458Y-103.91
X56.07Y-100.33
X56.8Y-103.4
X56.858Y-97.09
X58.2Y-93.6
X58.2Y-98.0
X58.8Y-104.4
X60.4Y-94.0
X63.4Y-104.0
X63.6Y-96.6
X64.8Y-81.2
X65.8Y-85.4
X66.2Y-86.8
X68.4Y-91.8
X73.6Y-78.2
X74.2Y-87.0
X74.6Y-84.2
X75.2Y-90.0
X76.0Y-85.0
X78.2Y-86.4
X81.2Y-81.2
T4
X82.245Y-85.7
X82.245Y-90.7
T5
X42.2Y-76.6
X42.2Y-102.8
X84.0Y-76.6
X84.0Y-102.8
T2
G00X84.67Y-84.325
M15
G01X85.32Y-84.325
M16
G05
G00X84.67Y-92.075
M15
G01X85.32Y-92.075
M16
G05
T3
G00X80.92Y-84.475
M15
G01X81.47Y-84.475
M16
G05
G00X80.92Y-91.925
M15
G01X81.47Y-91.925
M16
G05
T0
M30
