%TF.GenerationSoftware,KiCad,Pcbnew,6.0.6-3a73a75311~116~ubuntu20.04.1*%
%TF.CreationDate,2022-07-21T13:32:12-07:00*%
%TF.ProjectId,Drone Flight Controller,44726f6e-6520-4466-9c69-67687420436f,rev?*%
%TF.SameCoordinates,Original*%
%TF.FileFunction,Soldermask,Top*%
%TF.FilePolarity,Negative*%
%FSLAX46Y46*%
G04 Gerber Fmt 4.6, Leading zero omitted, Abs format (unit mm)*
G04 Created by KiCad (PCBNEW 6.0.6-3a73a75311~116~ubuntu20.04.1) date 2022-07-21 13:32:12*
%MOMM*%
%LPD*%
G01*
G04 APERTURE LIST*
G04 Aperture macros list*
%AMRoundRect*
0 Rectangle with rounded corners*
0 $1 Rounding radius*
0 $2 $3 $4 $5 $6 $7 $8 $9 X,Y pos of 4 corners*
0 Add a 4 corners polygon primitive as box body*
4,1,4,$2,$3,$4,$5,$6,$7,$8,$9,$2,$3,0*
0 Add four circle primitives for the rounded corners*
1,1,$1+$1,$2,$3*
1,1,$1+$1,$4,$5*
1,1,$1+$1,$6,$7*
1,1,$1+$1,$8,$9*
0 Add four rect primitives between the rounded corners*
20,1,$1+$1,$2,$3,$4,$5,0*
20,1,$1+$1,$4,$5,$6,$7,0*
20,1,$1+$1,$6,$7,$8,$9,0*
20,1,$1+$1,$8,$9,$2,$3,0*%
G04 Aperture macros list end*
%ADD10RoundRect,0.250000X0.750000X-0.250000X0.750000X0.250000X-0.750000X0.250000X-0.750000X-0.250000X0*%
%ADD11RoundRect,0.250000X0.250000X0.750000X-0.250000X0.750000X-0.250000X-0.750000X0.250000X-0.750000X0*%
%ADD12RoundRect,0.140000X-0.140000X-0.170000X0.140000X-0.170000X0.140000X0.170000X-0.140000X0.170000X0*%
%ADD13RoundRect,0.250000X-0.250000X-0.475000X0.250000X-0.475000X0.250000X0.475000X-0.250000X0.475000X0*%
%ADD14RoundRect,0.250000X-0.250000X-0.750000X0.250000X-0.750000X0.250000X0.750000X-0.250000X0.750000X0*%
%ADD15RoundRect,0.250000X-0.475000X0.250000X-0.475000X-0.250000X0.475000X-0.250000X0.475000X0.250000X0*%
%ADD16RoundRect,0.135000X-0.135000X-0.185000X0.135000X-0.185000X0.135000X0.185000X-0.135000X0.185000X0*%
%ADD17RoundRect,0.075000X-0.700000X-0.075000X0.700000X-0.075000X0.700000X0.075000X-0.700000X0.075000X0*%
%ADD18RoundRect,0.075000X-0.075000X-0.700000X0.075000X-0.700000X0.075000X0.700000X-0.075000X0.700000X0*%
%ADD19RoundRect,0.075000X-0.075000X0.350000X-0.075000X-0.350000X0.075000X-0.350000X0.075000X0.350000X0*%
%ADD20RoundRect,0.075000X-0.350000X-0.075000X0.350000X-0.075000X0.350000X0.075000X-0.350000X0.075000X0*%
%ADD21R,1.200000X1.400000*%
%ADD22RoundRect,0.250000X-0.750000X0.250000X-0.750000X-0.250000X0.750000X-0.250000X0.750000X0.250000X0*%
%ADD23RoundRect,0.218750X0.256250X-0.218750X0.256250X0.218750X-0.256250X0.218750X-0.256250X-0.218750X0*%
%ADD24RoundRect,0.135000X0.135000X0.185000X-0.135000X0.185000X-0.135000X-0.185000X0.135000X-0.185000X0*%
%ADD25RoundRect,0.218750X-0.218750X-0.256250X0.218750X-0.256250X0.218750X0.256250X-0.218750X0.256250X0*%
%ADD26RoundRect,0.150000X0.150000X-0.587500X0.150000X0.587500X-0.150000X0.587500X-0.150000X-0.587500X0*%
%ADD27RoundRect,0.140000X0.140000X0.170000X-0.140000X0.170000X-0.140000X-0.170000X0.140000X-0.170000X0*%
%ADD28RoundRect,0.140000X0.170000X-0.140000X0.170000X0.140000X-0.170000X0.140000X-0.170000X-0.140000X0*%
%ADD29C,2.200000*%
%ADD30RoundRect,0.140000X-0.170000X0.140000X-0.170000X-0.140000X0.170000X-0.140000X0.170000X0.140000X0*%
%ADD31RoundRect,0.135000X0.185000X-0.135000X0.185000X0.135000X-0.185000X0.135000X-0.185000X-0.135000X0*%
%ADD32R,0.500000X1.200000*%
%ADD33R,0.700000X0.700000*%
%ADD34R,0.700000X0.450000*%
%ADD35R,1.500000X2.000000*%
%ADD36R,3.800000X2.000000*%
%ADD37RoundRect,0.135000X-0.185000X0.135000X-0.185000X-0.135000X0.185000X-0.135000X0.185000X0.135000X0*%
%ADD38O,0.800000X0.800000*%
%ADD39R,1.300000X0.450000*%
%ADD40O,2.000000X1.450000*%
%ADD41O,1.800000X1.150000*%
G04 APERTURE END LIST*
D10*
%TO.C,*%
X79600000Y-81200000D03*
%TD*%
%TO.C,*%
X79600000Y-79200000D03*
%TD*%
D11*
%TO.C,J5*%
X78600000Y-101800000D03*
%TD*%
D12*
%TO.C,C14*%
X64120000Y-86800000D03*
X65080000Y-86800000D03*
%TD*%
D13*
%TO.C,C1*%
X71450000Y-84200000D03*
X73350000Y-84200000D03*
%TD*%
D14*
%TO.C,J11*%
X57200000Y-76600000D03*
%TD*%
D15*
%TO.C,C2*%
X74400000Y-74850000D03*
X74400000Y-76750000D03*
%TD*%
D16*
%TO.C,R4*%
X77490000Y-89200000D03*
X78510000Y-89200000D03*
%TD*%
D17*
%TO.C,U3*%
X51125000Y-86250000D03*
X51125000Y-86750000D03*
X51125000Y-87250000D03*
X51125000Y-87750000D03*
X51125000Y-88250000D03*
X51125000Y-88750000D03*
X51125000Y-89250000D03*
X51125000Y-89750000D03*
X51125000Y-90250000D03*
X51125000Y-90750000D03*
X51125000Y-91250000D03*
X51125000Y-91750000D03*
X51125000Y-92250000D03*
X51125000Y-92750000D03*
X51125000Y-93250000D03*
X51125000Y-93750000D03*
D18*
X53050000Y-95675000D03*
X53550000Y-95675000D03*
X54050000Y-95675000D03*
X54550000Y-95675000D03*
X55050000Y-95675000D03*
X55550000Y-95675000D03*
X56050000Y-95675000D03*
X56550000Y-95675000D03*
X57050000Y-95675000D03*
X57550000Y-95675000D03*
X58050000Y-95675000D03*
X58550000Y-95675000D03*
X59050000Y-95675000D03*
X59550000Y-95675000D03*
X60050000Y-95675000D03*
X60550000Y-95675000D03*
D17*
X62475000Y-93750000D03*
X62475000Y-93250000D03*
X62475000Y-92750000D03*
X62475000Y-92250000D03*
X62475000Y-91750000D03*
X62475000Y-91250000D03*
X62475000Y-90750000D03*
X62475000Y-90250000D03*
X62475000Y-89750000D03*
X62475000Y-89250000D03*
X62475000Y-88750000D03*
X62475000Y-88250000D03*
X62475000Y-87750000D03*
X62475000Y-87250000D03*
X62475000Y-86750000D03*
X62475000Y-86250000D03*
D18*
X60550000Y-84325000D03*
X60050000Y-84325000D03*
X59550000Y-84325000D03*
X59050000Y-84325000D03*
X58550000Y-84325000D03*
X58050000Y-84325000D03*
X57550000Y-84325000D03*
X57050000Y-84325000D03*
X56550000Y-84325000D03*
X56050000Y-84325000D03*
X55550000Y-84325000D03*
X55050000Y-84325000D03*
X54550000Y-84325000D03*
X54050000Y-84325000D03*
X53550000Y-84325000D03*
X53050000Y-84325000D03*
%TD*%
D13*
%TO.C,C3*%
X52050000Y-79600000D03*
X53950000Y-79600000D03*
%TD*%
D19*
%TO.C,U2*%
X61250000Y-99250000D03*
X60750000Y-99250000D03*
X60250000Y-99250000D03*
X59750000Y-99250000D03*
X59250000Y-99250000D03*
X58750000Y-99250000D03*
D20*
X58050000Y-99950000D03*
X58050000Y-100450000D03*
X58050000Y-100950000D03*
X58050000Y-101450000D03*
X58050000Y-101950000D03*
X58050000Y-102450000D03*
D19*
X58750000Y-103150000D03*
X59250000Y-103150000D03*
X59750000Y-103150000D03*
X60250000Y-103150000D03*
X60750000Y-103150000D03*
X61250000Y-103150000D03*
D20*
X61950000Y-102450000D03*
X61950000Y-101950000D03*
X61950000Y-101450000D03*
X61950000Y-100950000D03*
X61950000Y-100450000D03*
X61950000Y-99950000D03*
%TD*%
D21*
%TO.C,Y1*%
X44750000Y-85900000D03*
X44750000Y-88100000D03*
X46450000Y-88100000D03*
X46450000Y-85900000D03*
%TD*%
D22*
%TO.C,J7*%
X43400000Y-98200000D03*
%TD*%
D23*
%TO.C,D2*%
X76600000Y-76387500D03*
X76600000Y-74812500D03*
%TD*%
D24*
%TO.C,R1*%
X76110000Y-78200000D03*
X75090000Y-78200000D03*
%TD*%
D14*
%TO.C,J13*%
X66600000Y-101800000D03*
%TD*%
D25*
%TO.C,FB1*%
X49012500Y-97000000D03*
X50587500Y-97000000D03*
%TD*%
D14*
%TO.C,J8*%
X70600000Y-101800000D03*
%TD*%
%TO.C,J12*%
X74600000Y-101800000D03*
%TD*%
D26*
%TO.C,D1*%
X67650000Y-85737500D03*
X69550000Y-85737500D03*
X68600000Y-83862500D03*
%TD*%
D16*
%TO.C,R3*%
X77400000Y-87800000D03*
X78420000Y-87800000D03*
%TD*%
%TO.C,R2*%
X46890000Y-75800000D03*
X47910000Y-75800000D03*
%TD*%
D27*
%TO.C,C6*%
X54280000Y-97400000D03*
X53320000Y-97400000D03*
%TD*%
D28*
%TO.C,C15*%
X48400000Y-86680000D03*
X48400000Y-85720000D03*
%TD*%
D14*
%TO.C,J14*%
X68600000Y-101800000D03*
%TD*%
D27*
%TO.C,C17*%
X54280000Y-101000000D03*
X53320000Y-101000000D03*
%TD*%
D29*
%TO.C,H2*%
X42200000Y-76600000D03*
%TD*%
D22*
%TO.C,J6*%
X43400000Y-96000000D03*
%TD*%
D12*
%TO.C,C13*%
X61920000Y-95800000D03*
X62880000Y-95800000D03*
%TD*%
D22*
%TO.C,J2*%
X43400000Y-91800000D03*
%TD*%
D14*
%TO.C,J10*%
X72600000Y-101800000D03*
%TD*%
D29*
%TO.C,H4*%
X84000000Y-102800000D03*
%TD*%
D22*
%TO.C,J3*%
X43400000Y-93800000D03*
%TD*%
D27*
%TO.C,C7*%
X54280000Y-98600000D03*
X53320000Y-98600000D03*
%TD*%
%TO.C,C4*%
X54280000Y-99800000D03*
X53320000Y-99800000D03*
%TD*%
D14*
%TO.C,J9*%
X59000000Y-76600000D03*
%TD*%
D29*
%TO.C,H1*%
X84000000Y-76600000D03*
%TD*%
D30*
%TO.C,C18*%
X63400000Y-101920000D03*
X63400000Y-102880000D03*
%TD*%
D31*
%TO.C,R5*%
X59000000Y-80110000D03*
X59000000Y-79090000D03*
%TD*%
%TO.C,R6*%
X57200000Y-80020000D03*
X57200000Y-79000000D03*
%TD*%
D28*
%TO.C,C10*%
X48000000Y-92960000D03*
X48000000Y-92000000D03*
%TD*%
D32*
%TO.C,SW1*%
X46800000Y-83350000D03*
X46800000Y-77450000D03*
D33*
X47800000Y-78250000D03*
X45800000Y-82550000D03*
X45800000Y-78250000D03*
X47800000Y-82550000D03*
%TD*%
D24*
%TO.C,R8*%
X76510000Y-91400000D03*
X75490000Y-91400000D03*
%TD*%
D29*
%TO.C,H3*%
X42200000Y-102800000D03*
%TD*%
D34*
%TO.C,Q1*%
X74000000Y-91250000D03*
X74000000Y-89950000D03*
X72000000Y-90600000D03*
%TD*%
D27*
%TO.C,C12*%
X51880000Y-84200000D03*
X50920000Y-84200000D03*
%TD*%
D35*
%TO.C,U1*%
X66900000Y-81150000D03*
X69200000Y-81150000D03*
D36*
X69200000Y-74850000D03*
D35*
X71500000Y-81150000D03*
%TD*%
D12*
%TO.C,C5*%
X52720000Y-81400000D03*
X53680000Y-81400000D03*
%TD*%
D28*
%TO.C,C9*%
X49200000Y-92960000D03*
X49200000Y-92000000D03*
%TD*%
D30*
%TO.C,C19*%
X56800000Y-101520000D03*
X56800000Y-102480000D03*
%TD*%
D28*
%TO.C,C16*%
X48000000Y-88680000D03*
X48000000Y-87720000D03*
%TD*%
D12*
%TO.C,C8*%
X52720000Y-82600000D03*
X53680000Y-82600000D03*
%TD*%
D37*
%TO.C,R7*%
X70200000Y-90690000D03*
X70200000Y-91710000D03*
%TD*%
D38*
%TO.C,J1*%
X82245000Y-90700000D03*
X82245000Y-85700000D03*
D39*
X81145000Y-89500000D03*
X81145000Y-88850000D03*
X81145000Y-88200000D03*
X81145000Y-87550000D03*
X81145000Y-86900000D03*
D40*
X81195000Y-84475000D03*
X81195000Y-91925000D03*
D41*
X84995000Y-92075000D03*
X84995000Y-84325000D03*
%TD*%
D12*
%TO.C,C11*%
X50920000Y-98600000D03*
X51880000Y-98600000D03*
%TD*%
D11*
%TO.C,J4*%
X76600000Y-101800000D03*
%TD*%
M02*
